<svg xmlns="http://www.w3.org/2000/svg" width="100" height="100" viewBox="0 0 109.7 116.7">
			<path d="M46.7,95.2c0.4-2.1,0.9-4.2,1.3-6.3c0.6-3.2,1.2-6.3,1.6-9.5c0.1-0.7-0.1-1.4-0.4-2c-0.5-1.1-1.4-2-1.9-3.1
				c-0.3-0.5-0.4-1.3-0.2-1.8c0.5-1.6,1.1-3.2,1.6-4.8c0.2-0.7,0.7-1.1,1.4-1.1c3.2,0,6.3,0,9.5,0c0.7,0,1.1,0.3,1.4,1
				c0.5,1.6,1.2,3.2,1.7,4.9c0.2,0.6,0,1.3-0.2,1.8c-0.4,0.9-0.9,1.7-1.5,2.4c-0.8,1-1,2.1-0.8,3.4c0.9,4.9,1.8,9.7,2.7,14.6
				c0,0.2,0.2,0.4,0.3,0.8c0.6-1.6,1.1-3.1,1.7-4.6c2.9-8.4,5.9-16.8,8.8-25.2c0.4-1,0.8-1.3,1.8-1c1.5,0.5,3.1,0.8,4.6,1.5
				c7.7,3.5,15.2,7.2,21.8,12.5c1.7,1.4,3.3,2.9,4.8,4.6c2.2,2.5,3.1,5.5,3.2,8.8c0.1,2.8-0.1,5.6-0.1,8.4c0,1.9-1.1,2.9-2.6,3.8
				c-5.5,3.7-11.6,6.2-17.9,7.9c-7.8,2.1-15.7,3.5-23.8,4.2c-17,1.4-33.5-0.5-49.7-5.7c-4.8-1.5-9.2-3.9-13.4-6.6
				c-1.5-1-2.3-2.2-2.3-4.1c0.1-3.2,0-6.4,0.2-9.6c0.2-3.3,1.7-6.1,4-8.3c2.1-2,4.4-4,6.8-5.6c6.5-4.5,13.5-8.2,21-11
				c0.8-0.3,1.7-0.4,2.5-0.7c0.9-0.3,1.3,0,1.6,0.8c2.1,6.1,4.3,12.2,6.4,18.4c1.3,3.8,2.6,7.6,4,11.4C46.5,95.2,46.6,95.2,46.7,95.2z"
				/>
				<ellipse cx="54.9" cy="31.8" rx="29" ry="31.8"/>
		</svg>