<svg xmlns="http://www.w3.org/2000/svg" width="163.7" height="65.8" viewBox="0 0 163.7 65.8"><path fill="rgba(0, 0, 0, 0.5)" d="M20.2 8c-1.5-1.8-3.7-2.9-6-2.9-5.1 0-8 4.7-8 9.3s3 9.1 7.9 9.1c2.3 0 4.5-1.2 6-2.9v6.3c-2 .9-4 1.6-6.1 1.6-7.6 0-13.3-6.6-13.3-14C.7 6.8 6.1 0 14.1 0c2.1 0 4.2.6 6 1.6l.1 6.4zM41.2 28.6c-8.3 0-13.4-6.3-13.4-14.3S33.1.1 41.2.1s13.4 6.2 13.4 14.2c0 8-5.1 14.3-13.4 14.3zm0-23.3c-5 0-7.9 4.4-7.9 8.8 0 4.2 2.1 9.3 7.9 9.3 5.9 0 7.9-5.1 7.9-9.3 0-4.4-2.9-8.8-7.9-8.8zM62.6.8h7.5c7.8 0 13.1 5.9 13.1 13.6 0 7.6-5.4 13.5-13.1 13.5h-7.5V.8zm5.2 22.5h.9c6.5 0 9-3.6 9-8.9 0-5.9-3-8.9-9-8.9h-.9v17.8zM96.4 5.4v5.9h8.4v4.6h-8.4v7.4h8.8v4.6h-14V.8h14v4.6z"/><path fill="rgba(255, 255, 255, 0.9)" d="M5.9 59.3l-2.7 6H0l11.4-25.1 11.5 25.1h-3.2l-2.7-6H5.9zm5.5-12.5l-4.3 9.7h8.5l-4.2-9.7zM33.8 49.4h-.1l-2.8 15.9h-3.1l4.9-25.1 8.3 19 8.2-19 4.9 25.1h-3l-2.9-15.9L41 65.8zM61.6 41.2h12.9V44h-9.9v6.7h9.7v2.7h-9.7v9.1h9.9v2.8H61.6zM98 65.3h-3.6l-7.1-10.2h-1.2v10.2h-3V41.2h3.6c2.1 0 4.4 0 6.3 1.1 2 1.2 3.2 3.4 3.2 5.7 0 3.4-2.3 6.3-5.8 6.7L98 65.3zM86 52.6h1c3.1 0 6.4-.6 6.4-4.4s-3.6-4.3-6.5-4.3h-.8l-.1 8.7zM105.1 41.2h3v24.1h-3zM134.9 45.8c-1.7-1.5-4.1-2.4-6.3-2.4-5.4 0-9.5 4.5-9.5 9.8s4.1 9.8 9.4 9.8c2.4 0 4.6-.9 6.4-2.5V64c-1.8 1.1-4.2 1.7-6.3 1.7-6.9 0-12.5-5.5-12.5-12.4 0-7.1 5.7-12.7 12.8-12.7 2.1 0 4.2.5 6.1 1.6v3.6h-.1zM146.6 59.3l-2.7 6h-3.2l11.5-25.1 11.5 25.1h-3.3l-2.7-6h-11.1zm5.5-12.5l-4.3 9.7h8.6l-4.3-9.7zM127.1 17.5c-.8 1.3-1.7 2.8-2.5 4.3s-1.7 3.1-2.6 4.6c-.9 1.5-1.9 3-3 4.4s-2.2 2.6-3.5 3.7c-1.3 1.1-2.7 1.9-4.2 2.6-1.5.6-3.3 1-5.2 1-.6 0-1.3-.1-2-.2s-1.4-.4-2-.7-1.1-.7-1.5-1.3c-.4-.5-.6-1.2-.6-2 0-.6.1-1.2.4-1.6.3-.5.6-.9 1.1-1.2.4-.3.9-.6 1.5-.7.6-.2 1.1-.3 1.7-.3h.8c.2 0 .5.1.7.1v.3c-1 .1-1.8.4-2.5 1.1-.6.7-.9 1.5-.9 2.5 0 1.1.3 2 .9 2.6.6.6 1.6 1 3 1 1.3 0 2.5-.3 3.6-1s2.2-1.6 3.3-2.7c1.1-1.1 2.1-2.4 3-3.8.9-1.4 1.9-2.9 2.7-4.4.9-1.5 1.7-3 2.5-4.4s1.5-2.7 2.2-3.8h-3.1l.3-.6h3.1c.6-1.1 1.3-2.2 2.2-3.5.8-1.3 1.8-2.5 2.8-3.6 1.1-1.1 2.2-2 3.5-2.8 1.3-.7 2.6-1.1 4-1.1.4 0 .9.1 1.3.2s.8.3 1.1.5c.3.2.6.5.8.8.2.3.3.7.3 1.2 0 .8-.3 1.3-.8 1.7-.6.4-1.2.6-1.9.6-.2 0-.4 0-.6-.1.2-.4.4-.8.5-1.2s.2-.9.2-1.4c0-.6-.1-1.1-.4-1.4s-.6-.5-1-.5c-.5 0-1.1.2-1.7.6-.6.4-1.2 1-1.8 1.6-.6.7-1.1 1.4-1.7 2.2-.6.8-1.1 1.6-1.5 2.4-.5.8-.9 1.5-1.3 2.2-.4.7-.7 1.2-.9 1.6h8.2l-.4.6-8.1-.1z"/><path fill="rgba(255, 255, 255, 0.9)" d="M147.7 19.8c-.4.6-.9 1.1-1.5 1.5s-1.2.7-1.9.7c-.5 0-.9-.1-1.3-.3-.4-.2-.7-.5-1-.9-.3 1.1-.7 2.1-1.3 3s-1.3 1.8-2.1 2.5-1.8 1.3-2.8 1.7-2.1.6-3.2.6c-1.2 0-2.1-.3-2.8-1-.7-.7-1.1-1.6-1.1-2.8 0-1.1.3-2.2.9-3.2.6-1 1.3-1.9 2.2-2.7s1.9-1.4 3-1.9 2.2-.7 3.3-.7 2.1.3 2.7.9c.7.6 1.1 1.4 1.2 2.2.1.6.3 1.2.7 1.5.4.4.9.6 1.5.6s1.1-.2 1.6-.5 1.1-.9 1.6-1.5l.3.3zm-13.2 7.9c.5-.4 1-.8 1.5-1.4.5-.6.9-1.2 1.4-1.9.4-.7.8-1.4 1.1-2.2.3-.7.5-1.4.7-2.1.2-.7.3-1.2.3-1.7s-.1-.9-.3-1.2c-.2-.3-.6-.4-1.1-.4s-1.1.2-1.6.5c-.5.4-1 .8-1.5 1.4-.5.6-.9 1.2-1.4 1.9-.4.7-.8 1.4-1.1 2.2-.3.7-.5 1.4-.7 2.1-.2.7-.3 1.2-.3 1.7s.1.9.3 1.2c.2.3.6.4 1.1.4s1.1-.1 1.6-.5z"/><path fill="rgba(255, 255, 255, 0.9)" d="M141.4 28.1c1.1-1.9 2.2-3.7 3.3-5.6 1.1-1.8 2.2-3.7 3.3-5.6l3.6-.1-4.2 5.9.1.1c.8-1 1.5-1.8 2.2-2.4.6-.6 1.2-1.1 1.6-1.5.5-.4.9-.7 1.2-.9.3-.2.6-.4.7-.5.2-.2.5-.4.7-.6.2-.1.4-.2.7-.3.3-.1.6-.1 1-.1s.9 0 1.5-.1c-.4.6-.8 1.2-1.1 1.8-.3.6-.5 1.3-.5 2 0 .9.5 1.4 1.4 1.4.3 0 .6-.1.9-.2.3-.1.6-.3.8-.5.3-.2.5-.4.7-.6l.6-.6.1.2c-.6.7-1.3 1.3-2.1 1.8s-1.7.7-2.6.7c-.9 0-1.5-.2-2-.7-.5-.4-.7-1.1-.7-2 0-.6.2-1.1.5-1.6l-.1-.1c-.9.6-1.7 1.3-2.6 2.1-.8.8-1.6 1.6-2.3 2.5-.7.9-1.3 1.8-1.9 2.7s-1.1 1.8-1.6 2.7l-3.2.1z"/></svg>
