<?xml version="1.0" encoding="UTF-8" standalone="no"?>
<!-- Generator: Adobe Illustrator 19.2.1, SVG Export Plug-In . SVG Version: 6.00 Build 0)  -->

<svg
   xmlns:dc="http://purl.org/dc/elements/1.1/"
   xmlns:cc="http://creativecommons.org/ns#"
   xmlns:rdf="http://www.w3.org/1999/02/22-rdf-syntax-ns#"
   xmlns:svg="http://www.w3.org/2000/svg"
   xmlns="http://www.w3.org/2000/svg"
   xmlns:sodipodi="http://sodipodi.sourceforge.net/DTD/sodipodi-0.dtd"
   xmlns:inkscape="http://www.inkscape.org/namespaces/inkscape"
   version="1.1"
   id="Layer_1"
   x="0px"
   y="0px"
   viewBox="0 0 224.9 119.7"
   enable-background="new 0 0 224.9 119.7"
   xml:space="preserve"
   inkscape:version="0.91 r13725"
   sodipodi:docname="favicon.svg"><metadata
     id="metadata3361"><rdf:RDF><cc:Work
         rdf:about=""><dc:format>image/svg+xml</dc:format><dc:type
           rdf:resource="http://purl.org/dc/dcmitype/StillImage" /><dc:title></dc:title></cc:Work></rdf:RDF></metadata><defs
     id="defs3359" /><sodipodi:namedview
     pagecolor="#ffffff"
     bordercolor="#666666"
     borderopacity="1"
     objecttolerance="10"
     gridtolerance="10"
     guidetolerance="10"
     inkscape:pageopacity="0"
     inkscape:pageshadow="2"
     inkscape:window-width="1280"
     inkscape:window-height="657"
     id="namedview3357"
     showgrid="false"
     inkscape:zoom="3.4859939"
     inkscape:cx="112.45"
     inkscape:cy="59.849998"
     inkscape:window-x="-8"
     inkscape:window-y="-8"
     inkscape:window-maximized="1"
     inkscape:current-layer="Layer_1" /><path
     fill="#D22B2B"
     d="M76.1,27.2c-0.6,0-1.1,0-1.7,0c3.2,1,5.5,3.9,5.5,7.4v0.6c0,3.2-2,6-4.8,7.1c0.3,0,0.6,0,1,0  c18.5,0,27.1,13.2,28.6,26.6v-30c0-0.8,0.1-1.5,0.3-2.2C97.7,30.8,88.1,27.2,76.1,27.2 M47.2,75.6c-0.4,3.9-3.7,7-7.7,7h-8.1  c3.2,19.9,17.6,37,44.7,37c12,0,21.5-3.5,28.6-9V77.8c-1.5,13.3-9.6,26.4-28.6,26.4C56,104.2,48,89.7,47.2,75.6"
     id="path3343" /><path
     d="M105,36.7c-0.2,0.7-0.3,1.4-0.3,2.2v30c0.2,1.7,0.3,3.4,0.2,5c0,1.3-0.1,2.5-0.2,3.8v32.7  c11.2-8.8,16.5-22.8,16.6-36.8C121.4,59.7,116,45.7,105,36.7"
     id="path3345"
     fill="#772F7A"
     style="fill:#d22b2b;fill-opacity:1" /><path
     fill="#D22B2B"
     d="M69.6,42.9H41c-5.5,6.9-8.8,15.4-9.9,24.2h8.4c3.8,0,7,2.8,7.6,6.4C47,60.4,53.7,46,69.6,42.9"
     id="path3347" /><path
     fill="#F7BF58"
     d="M72.2,26.9H7.7c-4.2,0-7.7,3.5-7.7,7.7v77.2c0,4.3,3.4,7.7,7.7,7.7h1.3c4.2,0,7.7-3.5,7.7-7.7V90.2  c0-4.3,3.4-7.7,7.7-7.7h7.1c-0.5-2.9-0.7-5.8-0.7-8.7c0-2.3,0.1-4.5,0.4-6.8h-6.8c-4.2,0-7.7-3.5-7.7-7.7v-8.7  c0-4.3,3.4-7.7,7.7-7.7H41c7.2-9.1,18.3-15.3,33.4-15.7C73.7,27,73,26.9,72.2,26.9 M75.1,42.4c-1.9,0-3.8,0.2-5.5,0.6h2.6  C73.2,42.9,74.2,42.7,75.1,42.4 M47.1,73.5c0,0.2,0,0.4,0,0.6c0,0.5,0,1,0.1,1.5c0-0.2,0-0.5,0-0.7C47.2,74.4,47.2,73.9,47.1,73.5"
     id="path3349" /><path
     fill="#EE2E26"
     d="M74.4,27.2C59.4,27.6,48.3,33.9,41,42.9h28.6c1.7-0.3,3.5-0.5,5.5-0.6c2.8-1.2,4.8-3.9,4.8-7.1v-0.6  C79.9,31.1,77.6,28.1,74.4,27.2 M39.5,67.1h-8.4c-0.3,2.2-0.4,4.5-0.4,6.8c0,2.9,0.2,5.8,0.7,8.7h8.1c4,0,7.3-3.1,7.6-7  c0-0.5-0.1-1-0.1-1.5c0-0.2,0-0.4,0-0.6C46.5,69.9,43.3,67.1,39.5,67.1"
     id="path3351" /><path
     fill="#90C146"
     d="M105.5,0c-0.2,0-0.4,0-0.6,0.1c-0.1,0-0.2,0.1-0.3,0.1C99.7,1.4,95,2.9,90.7,4.9c-3.9,1.7-7.4,3.7-10.2,6.2  c-2.9,2.7-4.7,5.6-4.9,8.9c-0.2,2.5,0.5,5,2,7.3c0,0.1,0.1,0.1,0.1,0.2c0.1-0.1,0.2-0.1,0.2-0.1c0.8-0.5,1.5-0.9,2.2-1.4  c4.1-2.8,7.8-5.8,11.1-8.9c3.9-3.7,7.4-7.6,10.8-11.6c0.1-0.1,0.1-0.2,0.2-0.2c0.1,0,0.2-0.1,0.3-0.1c0,0,0.1,0,0.1,0  c0.1,0,0.1,0.1,0.2,0.2c0,0.1-0.1,0.1-0.1,0.2c-0.8,1.2-1.7,2.5-2.5,3.7c-3.7,5.8-8.5,11.2-14.3,16.2c-0.9,0.8-1.8,1.6-2.8,2.4  c0.1,0,0.1,0,0.2,0c5.7-1.2,10.4-3.3,14.2-6.2c2.9-2.3,5-4.9,6.4-7.7c1.4-2.6,2.2-5.3,2.5-8.1c0.2-1.7,0.3-3.4,0.2-5  C106.6,0.3,106.2,0,105.5,0"
     id="path3353" /><path
     fill="#90C146"
     d="M63.7,7.6c-0.4,0-0.7,0.2-0.8,0.5c-0.5,1.7-0.9,3.3-1,5c-0.2,2.3,0,4.6,1,6.9c1.5,3.2,4.4,5.7,9,7.4  c0.1,0.1,0.3,0.1,0.4,0.1c0-0.1-0.1-0.2-0.1-0.2c-2.1-2.1-3.8-4.3-4.9-6.6c-0.3-0.7-0.6-1.3-0.9-2c0-0.1,0-0.2,0.1-0.3  c0.1,0,0.3,0,0.4,0.1c0.1,0.1,0.2,0.2,0.3,0.3c1.6,2.1,3.4,4.1,5.7,5.9c0.6,0.5,1.3,1,2,1.5c0,0,0.1,0,0.1,0c0,0,0-0.1,0-0.1  c-0.6-1.3-1-2.7-1.1-4c-0.2-2.6,0.4-5.1,1.9-7.5c0.1-0.2,0.1-0.3-0.1-0.4c-3.1-2.6-6.9-4.7-11.2-6.3C64.1,7.6,63.9,7.6,63.7,7.6"
     id="path3355" /></svg>