<svg xmlns="http://www.w3.org/2000/svg" width="100" height="100" viewBox="0 0 97.6 96.9">
			<path d="M0,75.9c0.2-0.2,0.5-0.3,0.8-0.5c6-5.9,12.1-11.9,18.1-17.8c4.5-4.4,9.9-6.2,16.2-5.7
				c2.6,0.2,5.1,0.9,7.4,2.1c1.9,0.9,3.9,1.3,5.9,1.3c3.3,0,6.6,0,9.8,0c1.7,0,3.3,0.4,4.8,1.3c4.1,2.5,4.3,8.1,0.4,10.9
				c-1.5,1.1-3.2,1.7-5,1.7c-4,0-7.9,0-11.9,0c-0.3,0-0.7,0-1.2,0c1.2,1.2,2.2,2.3,3.3,3.3c0.2,0.2,0.5,0.2,0.8,0.2c4.2,0,8.4,0,12.5,0
				c0.5,0,1-0.3,1.4-0.5c7.5-5.5,15.1-11,22.6-16.5c2.4-1.8,5.2-2.6,8.2-1.7c0.6,0.2,1.1,0.4,1.6,0.7c2.1,1.2,2.3,3.6,0.5,5.2
				c-5.6,5-11.1,9.9-16.7,14.9c-3.1,2.7-6.1,5.4-9.2,8.1c-2.8,2.5-6.1,3.8-9.9,3.8c-10.6,0-21.2,0-31.7,0c-0.7,0-1.2,0.2-1.5,0.8
				c-1.9,3-3.9,5.9-5.8,8.8c-0.2,0.3-0.4,0.5-0.5,0.7C14,90,7.1,83,0,75.9z"/>
			<path d="M65.4,14.8c0.8-0.1,1.5-0.6,2.1-1.1c1.4-1.2,2.9-2.2,4.7-2.8c3.3-1,6.5,0,8.7,2.8c1.6,2,2.5,4.3,2.9,6.7
				c1.2,7.6-0.5,14.5-5.1,20.7c-1.5,2-3.4,3.6-5.8,4.6c-2.5,1-5,1-7.3-0.5c-0.7-0.4-1.4-0.4-2.1,0c-3.1,1.8-6.1,1.5-9.1-0.3
				c-2.4-1.5-4.2-3.6-5.6-5.9c-2-3.2-3.1-6.7-3.7-10.5c-0.5-3.4-0.4-6.7,0.6-10c0.6-2.1,1.6-4,3.1-5.6c2.4-2.4,5.7-3,9-1.6
				c1.4,0.6,2.6,1.5,3.7,2.5c0.6,0.5,1.2,0.9,2,1c0.3-1.8,0.9-3.6,1.7-5.2C66,8,67.1,6.5,68.4,5.2c-0.6-0.9-2.2-1.4-3.7-1
				c-0.6,3.1-2.7,5-5.8,5.5c-2.7,0.4-5.2,0-7.8-0.7c-0.5-0.1-1.1-0.3-1.6-0.5c-0.9-0.3-1.2-1.1-0.6-1.8c2.2-2.6,4.6-5,7.9-6.2
				c2.4-0.9,4.7-0.7,6.8,0.9c0.1,0,0.1,0.1,0.2,0.1c0.3,0.6,0.9,0.5,1.5,0.5c1-0.1,2,0,3,0.4c0.7,0.3,1.3,0.7,1.8,1.3
				c0.3-0.2,0.6-0.5,0.9-0.7c1.9-1.3,4-2.1,6.2-2.7c0.5-0.1,1,0.1,1.2,0.6c0.1,0.5-0.1,1-0.7,1.2c-1.6,0.4-3.2,1-4.7,1.9
				c-4,2.4-6.3,5.9-7.3,10.4C65.4,14.6,65.4,14.7,65.4,14.8z"/>
		</svg>