<?xml version="1.0" encoding="utf-8"?>
<!-- Generator: Adobe Illustrator 24.3.0, SVG Export Plug-In . SVG Version: 6.00 Build 0)  -->
<svg version="1.1" id="Layer_1" xmlns="http://www.w3.org/2000/svg" xmlns:xlink="http://www.w3.org/1999/xlink" x="0px" y="0px"
	 viewBox="0 0 595.28 362.98" style="enable-background:new 0 0 595.28 362.98;" xml:space="preserve">
<style type="text/css">
	.st0{fill:#29A549;}
	.st1{enable-background:new    ;}
	.st2{fill:#FFFFFF;}
	.st3{fill:#B0D352;}
	.st4{fill:#EF634F;}
</style>
<path class="st0" d="M477.13,320.79H118.3c-25.25,0-45.76-20.51-45.76-45.76V79.67c0-25.25,20.51-45.76,45.76-45.76h358.68
	c25.25,0,45.76,20.51,45.76,45.76v195.2C522.9,300.28,502.38,320.79,477.13,320.79z"/>
<g>
	<g class="st1">
		<path class="st2" d="M202.28,80.13h41.79v15.63h-25.87v15.28h25.87v15.4h-25.87v37.9h-15.91V80.13z"/>
		<path class="st2" d="M285.86,100.45c5.88,0,11.4,1.47,16.57,4.41c5.17,2.94,9.21,6.93,12.11,11.96c2.9,5.04,4.35,10.48,4.35,16.32
			c0,5.88-1.46,11.37-4.38,16.49c-2.92,5.11-6.9,9.11-11.94,11.99c-5.04,2.88-10.59,4.32-16.66,4.32c-8.93,0-16.55-3.18-22.87-9.53
			c-6.32-6.35-9.47-14.07-9.47-23.16c0-9.73,3.57-17.84,10.7-24.33C270.53,103.28,277.73,100.45,285.86,100.45z M286.11,115.17
			c-4.86,0-8.9,1.69-12.13,5.07c-3.23,3.38-4.85,7.7-4.85,12.97c0,5.42,1.6,9.81,4.79,13.17c3.19,3.36,7.23,5.04,12.13,5.04
			c4.89,0,8.96-1.7,12.21-5.09c3.25-3.4,4.87-7.77,4.87-13.11c0-5.34-1.6-9.68-4.79-13.02
			C295.16,116.84,291.08,115.17,286.11,115.17z"/>
		<path class="st2" d="M360.91,100.45c5.88,0,11.4,1.47,16.57,4.41c5.17,2.94,9.21,6.93,12.11,11.96c2.9,5.04,4.35,10.48,4.35,16.32
			c0,5.88-1.46,11.37-4.38,16.49c-2.92,5.11-6.9,9.11-11.94,11.99c-5.04,2.88-10.59,4.32-16.66,4.32c-8.93,0-16.55-3.18-22.87-9.53
			c-6.32-6.35-9.47-14.07-9.47-23.16c0-9.73,3.57-17.84,10.7-24.33C345.58,103.28,352.78,100.45,360.91,100.45z M361.16,115.17
			c-4.86,0-8.9,1.69-12.13,5.07c-3.23,3.38-4.85,7.7-4.85,12.97c0,5.42,1.6,9.81,4.79,13.17c3.19,3.36,7.23,5.04,12.13,5.04
			c4.89,0,8.96-1.7,12.21-5.09c3.25-3.4,4.87-7.77,4.87-13.11c0-5.34-1.6-9.68-4.79-13.02
			C370.21,116.84,366.13,115.17,361.16,115.17z"/>
		<path class="st2" d="M452.67,78.01h15.63v86.33h-15.63v-6.58c-3.05,2.9-6.11,4.99-9.18,6.27c-3.07,1.28-6.39,1.92-9.98,1.92
			c-8.04,0-15-3.12-20.87-9.36c-5.87-6.24-8.81-14-8.81-23.27c0-9.62,2.84-17.5,8.52-23.64c5.68-6.14,12.58-9.22,20.7-9.22
			c3.74,0,7.24,0.71,10.52,2.12c3.28,1.41,6.31,3.53,9.09,6.35V78.01z M436.24,114.88c-4.83,0-8.84,1.71-12.04,5.12
			c-3.19,3.42-4.79,7.8-4.79,13.14c0,5.38,1.62,9.81,4.88,13.28c3.25,3.47,7.25,5.21,12.01,5.21c4.91,0,8.98-1.71,12.21-5.12
			c3.23-3.42,4.85-7.89,4.85-13.42c0-5.42-1.62-9.81-4.85-13.17C445.27,116.56,441.18,114.88,436.24,114.88z"/>
	</g>
	<g class="st1">
		<path class="st2" d="M241.81,180.9c11.91,0,22.16,4.31,30.73,12.94c8.57,8.63,12.86,19.14,12.86,31.54
			c0,12.29-4.23,22.69-12.69,31.2c-8.46,8.51-18.72,12.77-30.79,12.77c-12.64,0-23.14-4.37-31.51-13.11
			c-8.36-8.74-12.54-19.12-12.54-31.14c0-8.05,1.95-15.46,5.84-22.21c3.9-6.75,9.25-12.11,16.07-16.06
			C226.6,182.87,233.94,180.9,241.81,180.9z M241.63,196.58c-7.79,0-14.35,2.71-19.66,8.13c-5.31,5.42-7.96,12.31-7.96,20.67
			c0,9.31,3.34,16.68,10.03,22.1c5.19,4.24,11.15,6.35,17.88,6.35c7.6,0,14.08-2.75,19.43-8.24s8.02-12.27,8.02-20.32
			c0-8.01-2.69-14.8-8.08-20.35C255.9,199.36,249.35,196.58,241.63,196.58z"/>
		<path class="st2" d="M344.76,204.94h15.63v62.28h-15.63v-6.58c-3.05,2.9-6.11,4.99-9.18,6.27c-3.07,1.28-6.39,1.92-9.98,1.92
			c-8.04,0-15-3.12-20.87-9.36c-5.87-6.24-8.81-14-8.81-23.27c0-9.62,2.84-17.5,8.52-23.64s12.58-9.22,20.7-9.22
			c3.74,0,7.24,0.71,10.52,2.12c3.28,1.41,6.31,3.53,9.09,6.35V204.94z M328.33,217.76c-4.83,0-8.84,1.71-12.04,5.12
			c-3.19,3.42-4.79,7.79-4.79,13.14c0,5.38,1.62,9.81,4.88,13.28c3.25,3.47,7.25,5.21,12.01,5.21c4.91,0,8.98-1.71,12.21-5.12
			c3.23-3.42,4.85-7.89,4.85-13.42c0-5.42-1.62-9.81-4.85-13.17S333.28,217.76,328.33,217.76z"/>
		<path class="st2" d="M414.32,213.64l-9.67,9.67c-3.93-3.89-7.5-5.84-10.71-5.84c-1.76,0-3.13,0.37-4.12,1.12
			c-0.99,0.74-1.49,1.67-1.49,2.78c0,0.84,0.31,1.61,0.94,2.32c0.63,0.71,2.18,1.67,4.67,2.89l5.72,2.86
			c6.03,2.98,10.17,6.01,12.42,9.1c2.25,3.09,3.38,6.72,3.38,10.88c0,5.53-2.03,10.15-6.1,13.85c-4.06,3.7-9.51,5.55-16.34,5.55
			c-9.08,0-16.33-3.55-21.75-10.65l9.62-10.48c1.83,2.14,3.98,3.86,6.44,5.18c2.46,1.32,4.65,1.97,6.55,1.97
			c2.06,0,3.72-0.5,4.98-1.49c1.26-0.99,1.89-2.14,1.89-3.43c0-2.4-2.27-4.75-6.81-7.04l-5.27-2.63
			c-10.08-5.07-15.11-11.43-15.11-19.06c0-4.92,1.9-9.13,5.7-12.62c3.8-3.49,8.65-5.24,14.57-5.24c4.04,0,7.85,0.89,11.42,2.66
			C408.81,207.77,411.83,210.32,414.32,213.64z"/>
		<path class="st2" d="M433.86,179.29c2.74,0,5.09,0.99,7.05,2.98c1.96,1.99,2.94,4.39,2.94,7.21c0,2.79-0.97,5.16-2.91,7.13
			c-1.94,1.97-4.26,2.95-6.96,2.95c-2.78,0-5.15-1-7.11-3c-1.96-2-2.94-4.44-2.94-7.3c0-2.75,0.97-5.09,2.91-7.04
			C428.78,180.27,431.12,179.29,433.86,179.29z M426.05,204.94h15.63v62.28h-15.63V204.94z"/>
		<path class="st2" d="M494,213.64l-9.67,9.67c-3.93-3.89-7.5-5.84-10.71-5.84c-1.76,0-3.13,0.37-4.12,1.12
			c-0.99,0.74-1.49,1.67-1.49,2.78c0,0.84,0.31,1.61,0.94,2.32c0.63,0.71,2.18,1.67,4.67,2.89l5.72,2.86
			c6.03,2.98,10.17,6.01,12.42,9.1c2.25,3.09,3.38,6.72,3.38,10.88c0,5.53-2.03,10.15-6.1,13.85c-4.06,3.7-9.51,5.55-16.34,5.55
			c-9.08,0-16.33-3.55-21.75-10.65l9.62-10.48c1.83,2.14,3.98,3.86,6.44,5.18c2.46,1.32,4.65,1.97,6.55,1.97
			c2.06,0,3.72-0.5,4.98-1.49c1.26-0.99,1.89-2.14,1.89-3.43c0-2.4-2.27-4.75-6.81-7.04l-5.27-2.63
			c-10.08-5.07-15.11-11.43-15.11-19.06c0-4.92,1.9-9.13,5.7-12.62c3.8-3.49,8.65-5.24,14.57-5.24c4.04,0,7.85,0.89,11.42,2.66
			C488.49,207.77,491.52,210.32,494,213.64z"/>
	</g>
</g>
<path class="st3" d="M160.43,108.39c4.73-4.73,7.1-11.36,6.63-17.99c-12.62-0.95-23.67,8.84-24.46,21.62c0,1.1,0,2.21,0,3.16
	C149.23,115.49,155.7,113.13,160.43,108.39z"/>
<path class="st3" d="M139.44,115.34c-0.63-13.1-4.89-25.72-12.31-36.29l-10.73,6.63c7.1,7.42,11.83,19.25,14.99,30.3"/>
<path class="st4" d="M139.13,226.59c0.79,0,1.58-0.32,2.05-1.1c1.26-1.58,32.35-40.4,32.35-67.06c-0.47-22.57-16.1-40.4-35.19-39.92
	c-18.3,0.47-33.14,18.15-33.61,39.92c0,26.67,30.93,65.49,32.35,67.06C137.55,226.27,138.34,226.59,139.13,226.59z"/>
<ellipse class="st2" cx="139.6" cy="154.47" rx="17.83" ry="18.15"/>
<g class="st1">
	<path class="st2" d="M110.84,239.57h8.41v20.5h13.12v6.7h-21.52V239.57z"/>
	<path class="st2" d="M152.91,262.28h-9.54l-1.33,4.49h-8.58l10.22-27.2h9.17l10.22,27.2h-8.8L152.91,262.28z M151.17,256.4l-3-9.78
		l-2.97,9.78H151.17z"/>
</g>
</svg>
