<?xml version="1.0" encoding="utf-8"?>
<!-- Generator: Adobe Illustrator 23.1.1, SVG Export Plug-In . SVG Version: 6.00 Build 0)  -->
<svg version="1.1" id="Layer_1" xmlns="http://www.w3.org/2000/svg" xmlns:xlink="http://www.w3.org/1999/xlink" x="0px" y="0px"
	 viewBox="0 0 400 400" style="enable-background:new 0 0 400 400;" xml:space="preserve">
<style type="text/css">
	.st0{enable-background:new    ;}
	.st1{fill:#ED6849;}
	.st2{font-family:'CenturyGothic-Bold';}
	.st3{font-size:67.1288px;}
	.st4{fill:#ED6849;stroke:#000000;stroke-width:14.1732;stroke-miterlimit:10;}
	.st5{fill:#4CB852;}
	.st6{fill:#FFFFFF;}
	.st7{font-family:'EuphemiaUCAS-Bold';}
	.st8{font-size:38.4219px;}
</style>
<text transform="matrix(1 0 0 1 22.0165 261.7537)" class="st0"><tspan x="0" y="0" class="st1 st2 st3">Food</tspan><tspan x="162.5" y="0" class="st4 st2 st3"> </tspan><tspan x="181.3" y="0" class="st1 st2 st3">Oasis</tspan></text>
<path class="st5" d="M216.9,113.3c3.7-3.8,5.6-9,5.3-14.3c-10-0.7-18.7,6.9-19.4,17.1c-0.1,0.9-0.1,1.7,0,2.6
	C208,119,213.1,117,216.9,113.3z"/>
<path class="st5" d="M200.2,118.8c-0.5-10.3-3.9-20.3-9.8-28.8l-8.6,5.2c5.8,5.9,9.6,15.4,12,24.1"/>
<path class="st1" d="M200,207c0.6,0,1.2-0.3,1.6-0.8c1.1-1.3,25.6-32.1,25.6-53.1c-0.3-17.9-12.8-32.1-27.8-31.7
	c-14.5,0.4-26.3,14.3-26.6,31.7c0,21.1,24.5,51.9,25.6,53.1C198.8,206.7,199.4,207,200,207z"/>
<ellipse class="st6" cx="200.4" cy="149.8" rx="14.1" ry="14.3"/>
<text transform="matrix(1 0 0 1 106.788 307.87)" class="st5 st7 st8">California</text>
</svg>
