<?xml version="1.0" encoding="utf-8"?>
<!-- Generator: Adobe Illustrator 23.1.1, SVG Export Plug-In . SVG Version: 6.00 Build 0)  -->
<svg version="1.1" id="Layer_1" xmlns="http://www.w3.org/2000/svg" xmlns:xlink="http://www.w3.org/1999/xlink" x="0px" y="0px"
	 viewBox="0 0 99.5 36.5" style="enable-background:new 0 0 99.5 36.5;" xml:space="preserve">
<style type="text/css">
	.st0{fill:#F52900;}
	.st1{fill:#35208E;}
	.st2{fill:#FFFFFF;}
</style>
<path d="M32.9,8.6"/>
<g>
	<path class="st0" d="M42.5,33.1c-0.2,0.2-0.4,0.4-0.5,0.5c-0.2,0.1-0.3,0.2-0.5,0.3c-0.2,0.1-0.4,0.1-0.6,0.2c-0.2,0-0.4,0-0.7,0
		c-0.5,0-0.9-0.1-1.2-0.3c-0.3-0.2-0.6-0.4-0.9-0.7c-0.2-0.3-0.4-0.7-0.5-1.1c-0.1-0.4-0.2-0.8-0.2-1.3c0-0.3,0-0.6,0.1-0.9
		c0-0.3,0.1-0.5,0.2-0.8s0.2-0.5,0.4-0.7c0.2-0.2,0.3-0.4,0.5-0.5c0.2-0.2,0.4-0.3,0.7-0.4c0.3-0.1,0.6-0.1,0.9-0.1
		c0.2,0,0.4,0,0.6,0c0.2,0,0.3,0.1,0.5,0.1c0.2,0.1,0.3,0.1,0.5,0.2s0.3,0.2,0.4,0.3l-0.6,0.8c-0.1-0.1-0.2-0.2-0.3-0.3
		c-0.1-0.1-0.2-0.1-0.3-0.2s-0.2-0.1-0.3-0.1c-0.1,0-0.2,0-0.4,0c-0.3,0-0.5,0.1-0.7,0.2c-0.2,0.1-0.4,0.3-0.5,0.5
		c-0.1,0.2-0.2,0.5-0.3,0.7c-0.1,0.3-0.1,0.6-0.1,0.8c0,0.4,0,0.7,0.1,1.1c0.1,0.3,0.2,0.6,0.3,0.9c0.1,0.2,0.3,0.4,0.5,0.6
		s0.4,0.2,0.6,0.2c0.2,0,0.4,0,0.5-0.1c0.1,0,0.3-0.1,0.4-0.2c0.1-0.1,0.2-0.2,0.3-0.3c0.1-0.1,0.2-0.2,0.3-0.3L42.5,33.1z"/>
	<path class="st0" d="M43.4,30.2c0.2-0.2,0.5-0.4,0.8-0.5s0.7-0.2,1-0.2c0.2,0,0.5,0,0.7,0.1c0.2,0.1,0.4,0.1,0.6,0.3
		s0.3,0.3,0.4,0.4s0.2,0.4,0.2,0.6v2c0,0.1,0,0.2,0,0.2c0,0.1,0,0.1,0.1,0.2s0.1,0.1,0.1,0.1c0,0,0.1,0,0.2,0c0,0,0.1,0,0.1,0
		c0.1,0,0.1,0,0.2,0l0.1,0.5c-0.1,0-0.1,0.1-0.2,0.1c-0.1,0-0.1,0.1-0.2,0.1s-0.2,0-0.3,0.1s-0.2,0-0.3,0c-0.2,0-0.4,0-0.5-0.1
		c-0.1-0.1-0.2-0.2-0.3-0.4c-0.1,0.1-0.2,0.2-0.4,0.3c-0.1,0.1-0.2,0.1-0.4,0.2c-0.1,0-0.2,0.1-0.4,0.1c-0.1,0-0.2,0-0.4,0
		c-0.2,0-0.4,0-0.5-0.1c-0.2-0.1-0.3-0.1-0.4-0.2c-0.1-0.1-0.2-0.2-0.3-0.4c-0.1-0.2-0.1-0.3-0.1-0.5c0-0.2,0-0.4,0.1-0.6
		c0.1-0.2,0.2-0.3,0.3-0.4c0.1-0.1,0.3-0.2,0.4-0.3c0.2-0.1,0.4-0.1,0.6-0.2s0.4-0.1,0.6-0.1c0.2,0,0.5,0,0.7,0v-0.2
		c0-0.1,0-0.3-0.1-0.4s-0.1-0.2-0.2-0.3c-0.1-0.1-0.2-0.1-0.3-0.1c-0.1,0-0.2,0-0.3,0c-0.1,0-0.2,0-0.3,0c-0.1,0-0.2,0-0.3,0.1
		c-0.1,0-0.2,0.1-0.3,0.2c-0.1,0.1-0.2,0.2-0.3,0.3L43.4,30.2z M46,31.7c-0.3,0-0.6,0-0.8,0.1C45,31.9,44.9,32,44.8,32
		c-0.1,0.1-0.2,0.2-0.2,0.3c0,0.1-0.1,0.2-0.1,0.4c0,0.1,0,0.2,0,0.3c0,0.1,0.1,0.1,0.1,0.2c0.1,0,0.1,0.1,0.2,0.1s0.1,0,0.2,0
		c0.1,0,0.2,0,0.2,0c0.1,0,0.2,0,0.2,0c0.1,0,0.2-0.1,0.3-0.1s0.2-0.1,0.3-0.2V31.7z"/>
	<path class="st0" d="M48.6,27.6h1.1V33c0,0.1,0,0.2,0.1,0.3s0.1,0.1,0.2,0.1c0.1,0,0.2,0,0.2,0c0.1,0,0.1-0.1,0.2-0.1l0.2,0.6
		c-0.1,0-0.1,0.1-0.2,0.1S50.1,34,50,34c-0.1,0-0.2,0.1-0.3,0.1c-0.1,0-0.2,0-0.3,0c-0.1,0-0.2,0-0.3,0c-0.1,0-0.2-0.1-0.3-0.1
		s-0.2-0.2-0.2-0.3c-0.1-0.1-0.1-0.3-0.1-0.5V27.6z"/>
	<path class="st0" d="M51.2,28.2c0-0.1,0-0.2,0-0.2c0-0.1,0.1-0.1,0.1-0.2c0.1-0.1,0.1-0.1,0.2-0.1c0.1,0,0.2,0,0.2,0
		c0.1,0,0.2,0,0.2,0s0.1,0.1,0.2,0.1c0.1,0.1,0.1,0.1,0.1,0.2s0,0.1,0,0.2s0,0.2,0,0.2c0,0.1-0.1,0.1-0.1,0.2
		c-0.1,0.1-0.1,0.1-0.2,0.1s-0.2,0-0.2,0c-0.1,0-0.2,0-0.2-0.1s-0.1-0.1-0.2-0.1c-0.1-0.1-0.1-0.1-0.1-0.2S51.2,28.3,51.2,28.2z
		 M51.3,29.6h1.1v4.4h-1.1V29.6z"/>
	<path class="st0" d="M53.9,29.6v-0.3c0-0.3,0-0.6,0.1-0.8c0.1-0.2,0.2-0.4,0.3-0.5c0.1-0.1,0.3-0.2,0.5-0.3s0.4-0.1,0.6-0.1
		c0.1,0,0.2,0,0.3,0c0.1,0,0.2,0,0.3,0.1s0.2,0.1,0.3,0.1c0.1,0,0.2,0.1,0.3,0.1l-0.5,0.8c0,0-0.1-0.1-0.1-0.1c0,0-0.1-0.1-0.2-0.1
		c-0.1,0-0.1-0.1-0.2-0.1s-0.2,0-0.2,0c-0.2,0-0.3,0-0.4,0c-0.1,0-0.2,0.1-0.2,0.1c0,0,0,0.1,0,0.1s0,0.1,0,0.2c0,0.1,0,0.1,0,0.2
		c0,0.1,0,0.2,0,0.2s0,0.1,0,0.2c0,0.1,0,0.1,0,0.1h0.9l-0.1,0.8h-0.9v3.7h-1.1v-3.7h-0.6v-0.6L53.9,29.6z"/>
	<path class="st0" d="M58.9,34.2c-0.4,0-0.7-0.1-1-0.2s-0.5-0.3-0.7-0.5s-0.3-0.5-0.4-0.7c-0.1-0.3-0.1-0.6-0.1-1
		c0-0.3,0-0.6,0.1-0.9c0.1-0.3,0.2-0.5,0.4-0.7c0.2-0.2,0.4-0.4,0.7-0.5c0.3-0.1,0.6-0.2,1-0.2c0.4,0,0.7,0.1,1,0.2
		c0.3,0.1,0.5,0.3,0.7,0.5c0.2,0.2,0.3,0.5,0.4,0.7c0.1,0.3,0.1,0.6,0.1,0.9c0,0.3,0,0.6-0.1,0.9s-0.2,0.5-0.4,0.7
		c-0.2,0.2-0.4,0.4-0.7,0.5C59.6,34.1,59.3,34.2,58.9,34.2z M58.9,33.4c0.2,0,0.3,0,0.5-0.1s0.2-0.2,0.3-0.4s0.1-0.3,0.2-0.5
		c0-0.2,0.1-0.4,0.1-0.6c0-0.2,0-0.4-0.1-0.6c0-0.2-0.1-0.3-0.2-0.5c-0.1-0.1-0.2-0.2-0.3-0.3c-0.1-0.1-0.3-0.1-0.5-0.1
		c-0.2,0-0.3,0-0.5,0.1c-0.1,0.1-0.2,0.2-0.3,0.3s-0.2,0.3-0.2,0.5s-0.1,0.4-0.1,0.6c0,0.2,0,0.4,0.1,0.6c0,0.2,0.1,0.4,0.2,0.5
		c0.1,0.2,0.2,0.3,0.3,0.4S58.7,33.4,58.9,33.4z"/>
	<path class="st0" d="M63.2,29.6c0.1,0.3,0.1,0.6,0.1,0.9c0.1-0.1,0.1-0.2,0.2-0.4s0.2-0.2,0.3-0.3c0.1-0.1,0.2-0.2,0.4-0.2
		c0.1-0.1,0.3-0.1,0.4-0.1c0.2,0,0.3,0,0.3,0c0.1,0,0.1,0,0.2,0.1l-0.2,1c-0.1,0-0.2-0.1-0.2-0.1c-0.1,0-0.2,0-0.2,0
		c-0.3,0-0.5,0.1-0.7,0.2c-0.2,0.1-0.3,0.3-0.4,0.5l0,2.9h-1.1v-3.7c0,0,0-0.1,0-0.2c0-0.1,0-0.1,0-0.2c0-0.1,0-0.1,0-0.2
		s0-0.1,0-0.1H63.2z"/>
	<path class="st0" d="M65.9,30.4c0-0.1,0-0.2,0-0.3c0-0.1,0-0.3,0-0.4h1c0,0,0,0,0,0.1c0,0,0,0.1,0,0.1c0,0,0,0.1,0,0.1
		c0,0,0,0.1,0,0.1c0.1-0.1,0.1-0.1,0.2-0.2c0.1-0.1,0.2-0.1,0.3-0.2c0.1,0,0.2-0.1,0.4-0.1c0.1,0,0.3,0,0.4,0c0.2,0,0.4,0,0.6,0.1
		c0.2,0.1,0.4,0.2,0.5,0.3s0.3,0.3,0.3,0.5c0.1,0.2,0.1,0.4,0.1,0.7v2.9h-1.1v-2.7c0-0.2,0-0.3-0.1-0.5c0-0.1-0.1-0.2-0.2-0.3
		c-0.1-0.1-0.2-0.1-0.3-0.2s-0.2-0.1-0.3-0.1c-0.1,0-0.2,0-0.2,0c-0.1,0-0.2,0-0.3,0.1c-0.1,0-0.2,0.1-0.3,0.1
		c-0.1,0-0.2,0.1-0.2,0.1v3.4h-1.1V30.4z"/>
	<path class="st0" d="M71.2,28.2c0-0.1,0-0.2,0-0.2c0-0.1,0.1-0.1,0.1-0.2c0.1-0.1,0.1-0.1,0.2-0.1c0.1,0,0.2,0,0.2,0
		c0.1,0,0.2,0,0.2,0s0.1,0.1,0.2,0.1c0.1,0.1,0.1,0.1,0.1,0.2s0,0.1,0,0.2s0,0.2,0,0.2c0,0.1-0.1,0.1-0.1,0.2
		c-0.1,0.1-0.1,0.1-0.2,0.1s-0.2,0-0.2,0c-0.1,0-0.2,0-0.2-0.1c-0.1,0-0.1-0.1-0.2-0.1c-0.1-0.1-0.1-0.1-0.1-0.2
		S71.2,28.3,71.2,28.2z M71.3,29.6h1.1v4.4h-1.1V29.6z"/>
	<path class="st0" d="M73.6,30.2c0.2-0.2,0.5-0.4,0.8-0.5c0.3-0.1,0.7-0.2,1-0.2c0.2,0,0.5,0,0.7,0.1c0.2,0.1,0.4,0.1,0.6,0.3
		c0.2,0.1,0.3,0.3,0.4,0.4c0.1,0.2,0.2,0.4,0.2,0.6v2c0,0.1,0,0.2,0,0.2s0,0.1,0.1,0.2s0.1,0.1,0.1,0.1c0,0,0.1,0,0.2,0
		c0,0,0.1,0,0.1,0c0.1,0,0.1,0,0.2,0l0.1,0.5c-0.1,0-0.1,0.1-0.2,0.1c-0.1,0-0.1,0.1-0.2,0.1s-0.2,0-0.3,0.1s-0.2,0-0.3,0
		c-0.2,0-0.4,0-0.5-0.1s-0.2-0.2-0.3-0.4c-0.1,0.1-0.2,0.2-0.4,0.3S75.6,34,75.5,34s-0.2,0.1-0.4,0.1c-0.1,0-0.2,0-0.4,0
		c-0.2,0-0.4,0-0.5-0.1c-0.2-0.1-0.3-0.1-0.4-0.2c-0.1-0.1-0.2-0.2-0.3-0.4s-0.1-0.3-0.1-0.5c0-0.2,0-0.4,0.1-0.6
		c0.1-0.2,0.2-0.3,0.3-0.4c0.1-0.1,0.3-0.2,0.4-0.3s0.4-0.1,0.6-0.2s0.4-0.1,0.6-0.1s0.5,0,0.7,0v-0.2c0-0.1,0-0.3-0.1-0.4
		s-0.1-0.2-0.2-0.3c-0.1-0.1-0.2-0.1-0.3-0.1c-0.1,0-0.2,0-0.3,0c-0.1,0-0.2,0-0.3,0c-0.1,0-0.2,0-0.3,0.1s-0.2,0.1-0.3,0.2
		c-0.1,0.1-0.2,0.2-0.3,0.3L73.6,30.2z M76.2,31.7c-0.3,0-0.6,0-0.8,0.1S75,32,74.9,32s-0.2,0.2-0.2,0.3s-0.1,0.2-0.1,0.4
		c0,0.1,0,0.2,0,0.3c0,0.1,0.1,0.1,0.1,0.2c0.1,0,0.1,0.1,0.2,0.1s0.1,0,0.2,0c0.1,0,0.2,0,0.2,0s0.2,0,0.2,0c0.1,0,0.2-0.1,0.3-0.1
		c0.1,0,0.2-0.1,0.3-0.2V31.7z"/>
</g>
<path class="st0" d="M47,12"/>
<path class="st1" d="M57.4,1.8c-4.5,0-8.2,3.7-8.2,8.2c0,1.3,0.3,2.5,0.8,3.5c1.1,2.4-0.6-1.1,7.4,14.5l7.3-14.3
	c0.6-1.1,0.9-2.4,0.9-3.7C65.6,5.5,62,1.8,57.4,1.8z"/>
<g>
	<path class="st0" d="M3.2,3.2h6.7v2.5H5.7v2.4h4.1v2.5H5.7v6.1H3.2V3.2z"/>
	<path class="st0" d="M16.6,6.4c0.9,0,1.8,0.2,2.7,0.7C20,7.6,20.7,8.2,21.1,9s0.7,1.7,0.7,2.6c0,0.9-0.2,1.8-0.7,2.6
		s-1.1,1.5-1.9,1.9s-1.7,0.7-2.7,0.7c-1.4,0-2.6-0.5-3.7-1.5c-1-1-1.5-2.3-1.5-3.7c0-1.6,0.6-2.9,1.7-3.9
		C14.1,6.9,15.3,6.4,16.6,6.4z M16.6,8.8c-0.8,0-1.4,0.3-1.9,0.8s-0.8,1.2-0.8,2.1c0,0.9,0.3,1.6,0.8,2.1s1.2,0.8,1.9,0.8
		s1.4-0.3,2-0.8s0.8-1.2,0.8-2.1s-0.3-1.5-0.8-2.1C18,9,17.4,8.8,16.6,8.8z"/>
	<path class="st0" d="M28.6,6.4c0.9,0,1.8,0.2,2.7,0.7C32,7.6,32.7,8.2,33.2,9s0.7,1.7,0.7,2.6c0,0.9-0.2,1.8-0.7,2.6
		s-1.1,1.5-1.9,1.9s-1.7,0.7-2.7,0.7c-1.4,0-2.6-0.5-3.7-1.5c-1-1-1.5-2.3-1.5-3.7c0-1.6,0.6-2.9,1.7-3.9
		C26.1,6.9,27.3,6.4,28.6,6.4z M28.6,8.8c-0.8,0-1.4,0.3-1.9,0.8s-0.8,1.2-0.8,2.1c0,0.9,0.3,1.6,0.8,2.1s1.2,0.8,1.9,0.8
		s1.4-0.3,2-0.8s0.8-1.2,0.8-2.1s-0.3-1.5-0.8-2.1C30.1,9,29.4,8.8,28.6,8.8z"/>
	<path class="st0" d="M43.3,2.8h2.5v13.8h-2.5v-1.1c-0.5,0.5-1,0.8-1.5,1s-1,0.3-1.6,0.3c-1.3,0-2.4-0.5-3.3-1.5s-1.4-2.2-1.4-3.7
		c0-1.5,0.5-2.8,1.4-3.8c0.9-1,2-1.5,3.3-1.5c0.6,0,1.2,0.1,1.7,0.3s1,0.6,1.5,1V2.8z M40.6,8.7c-0.8,0-1.4,0.3-1.9,0.8
		s-0.8,1.2-0.8,2.1c0,0.9,0.3,1.6,0.8,2.1s1.2,0.8,1.9,0.8c0.8,0,1.4-0.3,2-0.8c0.5-0.5,0.8-1.3,0.8-2.1c0-0.9-0.3-1.6-0.8-2.1
		C42.1,9,41.4,8.7,40.6,8.7z"/>
	<path class="st2" d="M57.5,2.8c1.9,0,3.5,0.7,4.9,2.1c1.4,1.4,2.1,3.1,2.1,5c0,2-0.7,3.6-2,5c-1.4,1.4-3,2-4.9,2
		c-2,0-3.7-0.7-5-2.1c-1.3-1.4-2-3.1-2-5c0-1.3,0.3-2.5,0.9-3.6c0.6-1.1,1.5-1.9,2.6-2.6C55.1,3.1,56.3,2.8,57.5,2.8z M57.5,5.3
		c-1.2,0-2.3,0.4-3.1,1.3s-1.3,2-1.3,3.3c0,1.5,0.5,2.7,1.6,3.5c0.8,0.7,1.8,1,2.9,1c1.2,0,2.3-0.4,3.1-1.3s1.3-2,1.3-3.3
		c0-1.3-0.4-2.4-1.3-3.3S58.8,5.3,57.5,5.3z"/>
	<path class="st0" d="M74,6.7h2.5v10H74v-1.1c-0.5,0.5-1,0.8-1.5,1c-0.5,0.2-1,0.3-1.6,0.3c-1.3,0-2.4-0.5-3.3-1.5s-1.4-2.2-1.4-3.7
		c0-1.5,0.5-2.8,1.4-3.8c0.9-1,2-1.5,3.3-1.5c0.6,0,1.2,0.1,1.7,0.3c0.5,0.2,1,0.6,1.5,1V6.7z M71.4,8.7c-0.8,0-1.4,0.3-1.9,0.8
		c-0.5,0.5-0.8,1.2-0.8,2.1c0,0.9,0.3,1.6,0.8,2.1s1.2,0.8,1.9,0.8c0.8,0,1.4-0.3,2-0.8c0.5-0.5,0.8-1.3,0.8-2.1
		c0-0.9-0.3-1.6-0.8-2.1C72.8,9,72.2,8.7,71.4,8.7z"/>
	<path class="st0" d="M85.1,8.1l-1.5,1.5C83,9,82.4,8.7,81.9,8.7c-0.3,0-0.5,0.1-0.7,0.2C81.1,9,81,9.1,81,9.3
		c0,0.1,0.1,0.3,0.2,0.4c0.1,0.1,0.3,0.3,0.7,0.5l0.9,0.5c1,0.5,1.6,1,2,1.5s0.5,1.1,0.5,1.7c0,0.9-0.3,1.6-1,2.2
		c-0.7,0.6-1.5,0.9-2.6,0.9c-1.5,0-2.6-0.6-3.5-1.7l1.5-1.7c0.3,0.3,0.6,0.6,1,0.8c0.4,0.2,0.7,0.3,1,0.3c0.3,0,0.6-0.1,0.8-0.2
		c0.2-0.2,0.3-0.3,0.3-0.5c0-0.4-0.4-0.8-1.1-1.1L81,12.3c-1.6-0.8-2.4-1.8-2.4-3.1c0-0.8,0.3-1.5,0.9-2c0.6-0.6,1.4-0.8,2.3-0.8
		c0.6,0,1.3,0.1,1.8,0.4C84.3,7.1,84.8,7.5,85.1,8.1z"/>
	<path class="st0" d="M88.3,2.6c0.4,0,0.8,0.2,1.1,0.5c0.3,0.3,0.5,0.7,0.5,1.2c0,0.4-0.2,0.8-0.5,1.1c-0.3,0.3-0.7,0.5-1.1,0.5
		c-0.4,0-0.8-0.2-1.1-0.5c-0.3-0.3-0.5-0.7-0.5-1.2c0-0.4,0.2-0.8,0.5-1.1S87.8,2.6,88.3,2.6z M87,6.7h2.5v10H87V6.7z"/>
	<path class="st0" d="M97.9,8.1l-1.5,1.5c-0.6-0.6-1.2-0.9-1.7-0.9c-0.3,0-0.5,0.1-0.7,0.2c-0.2,0.1-0.2,0.3-0.2,0.4
		c0,0.1,0.1,0.3,0.2,0.4c0.1,0.1,0.3,0.3,0.7,0.5l0.9,0.5c1,0.5,1.6,1,2,1.5s0.5,1.1,0.5,1.7c0,0.9-0.3,1.6-1,2.2
		c-0.7,0.6-1.5,0.9-2.6,0.9c-1.5,0-2.6-0.6-3.5-1.7l1.5-1.7c0.3,0.3,0.6,0.6,1,0.8c0.4,0.2,0.7,0.3,1,0.3c0.3,0,0.6-0.1,0.8-0.2
		c0.2-0.2,0.3-0.3,0.3-0.5c0-0.4-0.4-0.8-1.1-1.1l-0.8-0.4c-1.6-0.8-2.4-1.8-2.4-3.1c0-0.8,0.3-1.5,0.9-2c0.6-0.6,1.4-0.8,2.3-0.8
		c0.6,0,1.3,0.1,1.8,0.4C97,7.1,97.5,7.5,97.9,8.1z"/>
</g>
</svg>
