<svg id="Layer_1" data-name="Layer 1" xmlns="http://www.w3.org/2000/svg" viewBox="0 0 450.2 286.88"><defs><style>.cls-1{fill:#29a549;}.cls-2{isolation:isolate;}.cls-3{fill:#fff;}.cls-4{fill:#b0d352;}.cls-5{fill:#ef634f;}</style></defs><path class="cls-1" d="M477.13,320.79H118.3A45.79,45.79,0,0,1,72.54,275V79.67A45.8,45.8,0,0,1,118.3,33.91H477a45.8,45.8,0,0,1,45.76,45.76v195.2A45.59,45.59,0,0,1,477.13,320.79Z" transform="translate(-72.54 -33.91)"/><g class="cls-2"><path class="cls-3" d="M202.28,80.13h41.79V95.76H218.19V111h25.88v15.4H218.19v37.9H202.28Z" transform="translate(-72.54 -33.91)"/><path class="cls-3" d="M285.86,100.45a33,33,0,0,1,16.57,4.41,32.33,32.33,0,0,1,16.46,28.28,32.73,32.73,0,0,1-4.38,16.49,31.61,31.61,0,0,1-11.94,12,33,33,0,0,1-16.66,4.32A31.09,31.09,0,0,1,263,156.41a33,33,0,0,1,1.23-47.48A31.29,31.29,0,0,1,285.86,100.45Zm.25,14.72A16.06,16.06,0,0,0,274,120.23a18,18,0,0,0-4.85,13q0,8.13,4.79,13.16a16,16,0,0,0,12.13,5,16.22,16.22,0,0,0,12.21-5.09q4.88-5.1,4.87-13.11t-4.78-13A16.25,16.25,0,0,0,286.11,115.17Z" transform="translate(-72.54 -33.91)"/><path class="cls-3" d="M360.91,100.45a33,33,0,0,1,16.57,4.41,32.39,32.39,0,0,1,16.46,28.28,32.73,32.73,0,0,1-4.38,16.49,31.61,31.61,0,0,1-11.94,12A33,33,0,0,1,361,165.94a31.09,31.09,0,0,1-22.87-9.53,33,33,0,0,1,1.23-47.48A31.29,31.29,0,0,1,360.91,100.45Zm.25,14.72A16,16,0,0,0,349,120.23a18,18,0,0,0-4.85,13q0,8.13,4.79,13.16a16,16,0,0,0,12.13,5,16.22,16.22,0,0,0,12.21-5.09q4.88-5.1,4.87-13.11t-4.78-13A16.25,16.25,0,0,0,361.16,115.17Z" transform="translate(-72.54 -33.91)"/><path class="cls-3" d="M452.67,78H468.3v86.33H452.67v-6.58a30.45,30.45,0,0,1-9.18,6.26,25.65,25.65,0,0,1-10,1.92q-12.06,0-20.87-9.36t-8.8-23.27q0-14.43,8.52-23.64a27.16,27.16,0,0,1,20.7-9.22,26.37,26.37,0,0,1,10.52,2.12,28.76,28.76,0,0,1,9.09,6.36Zm-16.43,36.87a15.82,15.82,0,0,0-12,5.12q-4.79,5.13-4.79,13.14t4.88,13.28a15.81,15.81,0,0,0,12,5.21,16.14,16.14,0,0,0,12.21-5.12q4.85-5.13,4.85-13.43,0-8.13-4.85-13.16A16.32,16.32,0,0,0,436.24,114.88Z" transform="translate(-72.54 -33.91)"/></g><g class="cls-2"><path class="cls-3" d="M241.81,180.9a41.84,41.84,0,0,1,30.73,12.93,43.08,43.08,0,0,1,12.86,31.55q0,18.44-12.69,31.2a41.79,41.79,0,0,1-30.79,12.76q-19,0-31.5-13.11a44.24,44.24,0,0,1,31.39-75.33Zm-.18,15.68A26.42,26.42,0,0,0,222,204.71q-8,8.13-8,20.67,0,14,10,22.09a27.5,27.5,0,0,0,17.88,6.36,26.11,26.11,0,0,0,19.43-8.25,29.71,29.71,0,0,0-.06-40.67A26.38,26.38,0,0,0,241.63,196.58Z" transform="translate(-72.54 -33.91)"/><path class="cls-3" d="M344.76,204.94h15.63v62.28H344.76v-6.58a30.68,30.68,0,0,1-9.18,6.27,25.6,25.6,0,0,1-10,1.92q-12.08,0-20.87-9.36t-8.81-23.27q0-14.43,8.52-23.65a27.15,27.15,0,0,1,20.7-9.21,26.16,26.16,0,0,1,10.52,2.12,28.67,28.67,0,0,1,9.09,6.35Zm-16.43,12.82a15.79,15.79,0,0,0-12,5.13Q311.51,228,311.5,236a18.68,18.68,0,0,0,4.88,13.28,15.81,15.81,0,0,0,12,5.21,16.08,16.08,0,0,0,12.21-5.13q4.84-5.12,4.85-13.42,0-8.13-4.85-13.17A16.29,16.29,0,0,0,328.33,217.76Z" transform="translate(-72.54 -33.91)"/><path class="cls-3" d="M414.32,213.64l-9.68,9.68q-5.89-5.85-10.7-5.84a6.8,6.8,0,0,0-4.13,1.11,3.36,3.36,0,0,0-1.48,2.78,3.42,3.42,0,0,0,.94,2.32,17.56,17.56,0,0,0,4.67,2.89l5.72,2.86q9,4.47,12.42,9.1a19,19,0,0,1-2.72,24.73q-6.09,5.57-16.34,5.56-13.62,0-21.75-10.65l9.61-10.48a22.19,22.19,0,0,0,6.44,5.18,14.27,14.27,0,0,0,6.56,2,7.83,7.83,0,0,0,5-1.49,4.31,4.31,0,0,0,1.89-3.43q0-3.62-6.81-7.05l-5.27-2.63q-15.12-7.6-15.11-19.06a16.56,16.56,0,0,1,5.69-12.62q5.7-5.25,14.57-5.24a25.3,25.3,0,0,1,20.5,10.3Z" transform="translate(-72.54 -33.91)"/><path class="cls-3" d="M433.86,179.29a9.58,9.58,0,0,1,7.05,3,9.89,9.89,0,0,1,2.94,7.21,9.77,9.77,0,0,1-2.91,7.13,9.42,9.42,0,0,1-7,2.95,9.56,9.56,0,0,1-7.11-3,10,10,0,0,1-2.94-7.29,10,10,0,0,1,9.93-10Zm-7.81,25.65h15.63v62.28H426.05Z" transform="translate(-72.54 -33.91)"/><path class="cls-3" d="M494,213.64l-9.67,9.68c-3.94-3.9-7.5-5.84-10.71-5.84a6.75,6.75,0,0,0-4.12,1.11,3.37,3.37,0,0,0-1.49,2.78,3.43,3.43,0,0,0,.95,2.32,17.27,17.27,0,0,0,4.66,2.89l5.72,2.86q9,4.47,12.43,9.1a19,19,0,0,1-2.72,24.73q-6.1,5.57-16.35,5.56-13.62,0-21.75-10.65l9.62-10.48a22.05,22.05,0,0,0,6.44,5.18,14.2,14.2,0,0,0,6.55,2,7.83,7.83,0,0,0,5-1.49,4.31,4.31,0,0,0,1.89-3.43q0-3.62-6.81-7.05l-5.27-2.63q-15.11-7.6-15.11-19.06a16.53,16.53,0,0,1,5.7-12.62q5.69-5.25,14.57-5.24A25.26,25.26,0,0,1,494,213.64Z" transform="translate(-72.54 -33.91)"/></g><path class="cls-4" d="M160.43,108.39a23.17,23.17,0,0,0,6.63-18A23,23,0,0,0,142.6,112v3.16A23.5,23.5,0,0,0,160.43,108.39Z" transform="translate(-72.54 -33.91)"/><path class="cls-4" d="M139.44,115.34A69,69,0,0,0,127.13,79L116.4,85.67c7.11,7.42,11.84,19.25,15,30.3" transform="translate(-72.54 -33.91)"/><path class="cls-5" d="M139.13,226.59a2.3,2.3,0,0,0,2.05-1.11c1.26-1.58,32.35-40.4,32.35-67.06-.48-22.57-16.1-40.4-35.19-39.93-18.31.48-33.14,18.15-33.61,39.93,0,26.66,30.93,65.48,32.35,67.06A2.3,2.3,0,0,0,139.13,226.59Z" transform="translate(-72.54 -33.91)"/><ellipse class="cls-3" cx="67.06" cy="120.56" rx="17.83" ry="18.15"/><g class="cls-2"><path class="cls-3" d="M129,255.64l7.37,2.22A13.37,13.37,0,0,1,134,263a10.11,10.11,0,0,1-4,3.14,14.91,14.91,0,0,1-6,1.05,17.67,17.67,0,0,1-7.25-1.28,11.48,11.48,0,0,1-4.85-4.54,15.36,15.36,0,0,1-2-8.31q0-6.75,3.59-10.37t10.16-3.63c3.43,0,6.12.7,8.08,2.08a12.24,12.24,0,0,1,4.37,6.39l-7.42,1.65a6.16,6.16,0,0,0-.82-1.82,4.91,4.91,0,0,0-1.72-1.49,5,5,0,0,0-2.29-.52,4.93,4.93,0,0,0-4.37,2.3,9.77,9.77,0,0,0-1.15,5.36c0,3,.45,5.08,1.37,6.2a5.4,5.4,0,0,0,7.5.32A8.26,8.26,0,0,0,129,255.64Z" transform="translate(-72.54 -33.91)"/><path class="cls-3" d="M157.13,262.28h-9.55l-1.32,4.49h-8.58l10.22-27.2h9.17l10.22,27.2h-8.8Zm-1.75-5.88-3-9.78-3,9.78Z" transform="translate(-72.54 -33.91)"/></g></svg>