<?xml version="1.0" encoding="UTF-8"?>
<svg width="30px" height="40px" viewBox="0 0 30 40" xmlns="http://www.w3.org/2000/svg" xmlns:xlink="http://www.w3.org/1999/xlink" version="1.1">
 <!-- Generated by Pixelmator Pro 2.1.2 -->
 <g id="group">
    <path 
        id="Path" 
        d="M15 39.863 C19.8 34.568 28.561 22.592 29.925 15.856 30.135 13.853 29.905 11.83 29.251 9.917 28.597 8.005 27.532 6.245 26.126 4.751 24.72 3.258 23.004 2.063 21.088 1.245 19.171 0.426 17.098 0.003 15 0 L15 6.364 15 20.698 Z" 
        fill="#e57109" // orange meal
        fill-opacity="1" 
        stroke="none"
    />
    <path 
        id="Path-1" 
        d="M15 39.863 C10.201 34.568 1.439 22.592 0.075 15.856 -0.134 13.853 0.095 11.83 0.749 9.917 1.404 8.005 2.468 6.245 3.874 4.751 5.28 3.258 6.996 2.063 8.913 1.245 10.829 0.426 12.903 0.003 15 0 L15 6.364 15 20.698 Z" 
        fill="#336699" // blue pantry
        fill-opacity="1" 
        stroke="none"
    />
    <path 
        id="Path-2" 
        d="M8.481 18.575 C8.236 18.847 7.758 19 7.347 19 5.935 19 4 16.493 4 14.261 4 12.028 4.919 10.444 6.332 10.444 7.098 10.444 7.716 10.537 8.046 10.929 L8.04 10.904 C8.04 10.904 7.785 9.813 7.368 9.584 7.598 9.461 8.025 9.115 8.025 9.115 8.025 9.115 8.682 10.009 8.682 10.906 L8.682 10.929 C9.167 10.501 9.747 10.237 10.63 10.237 12.042 10.237 12.962 12.028 12.962 14.261 12.962 16.493 10.958 19 9.546 19 9.132 19 8.727 18.852 8.481 18.575 Z" 
        fill="#ffffff" 
        fill-opacity="1" 
        stroke="none"
    />
    <path 
        id="Path-3" 
        d="M10.243 9.442 C9.867 10.064 9.039 10.25 9.039 10.25 9.039 10.25 8.822 9.43 9.198 8.809 9.575 8.188 10.402 8 10.402 8 10.402 8 10.62 8.821 10.243 9.442 Z" 
        fill="#ffffff" 
        fill-opacity="1" 
        stroke="none"
    />
    <path 
        id="Path-4" 
        d="M23.455 7 C23.911 7 24 7.556 24 7.556 L24 11.825 C24 13.439 22.367 14.759 22.367 14.759 L22.367 19.96 C22.367 19.96 22.353 21 21.272 21 20.19 21 21.772 21 20.722 21 19.671 21 19.652 19.96 19.652 19.96 L19.652 14.759 C19.652 14.759 18 13.45 18 11.83 L18 7.532 C18 7.532 18.013 7 18.545 7 19.076 7 19.085 7.019 19.085 7.532 19.085 8.045 19.102 11.293 19.102 11.293 19.102 11.293 19.14 11.788 19.387 11.788 19.635 11.788 19.616 11.293 19.616 11.293 19.616 11.293 19.616 8.064 19.616 7.532 19.616 7 19.622 7 20.167 7 20.711 7 20.736 7.019 20.736 7.532 L20.736 11.347 C20.736 11.347 20.755 11.825 21.002 11.825 21.248 11.825 21.273 11.311 21.273 11.311 21.273 11.311 21.273 8.04 21.273 7.52 21.273 7 21.368 7 21.862 7 22.357 7 22.388 7.031 22.388 7.508 L22.388 11.248 C22.388 11.248 22.368 11.843 22.634 11.843 22.91 11.843 22.926 11.281 22.926 11.281 22.926 11.281 22.93 8.088 22.93 7.544 22.93 7 23 7 23.455 7 Z" 
        fill="#ffffff" 
        fill-opacity="1" 
        stroke="none"
    />
 </g>
</svg>
