<?xml version="1.0" encoding="utf-8"?>
<!-- Generator: Adobe Illustrator 13.0.2, SVG Export Plug-In . SVG Version: 6.00 Build 14948)  -->
<!DOCTYPE svg PUBLIC "-//W3C//DTD SVG 1.1//EN" "http://www.w3.org/Graphics/SVG/1.1/DTD/svg11.dtd">
<svg version="1.1" id="Layer_1" xmlns="http://www.w3.org/2000/svg" xmlns:xlink="http://www.w3.org/1999/xlink" x="0px" y="0px"
	 width="450.204px" height="286.88px" viewBox="0 0 450.204 286.88" enable-background="new 0 0 450.204 286.88"
	 xml:space="preserve">
<path fill="#2AA549" d="M404.599,286.88H45.762C20.514,286.88,0,266.366,0,241.118V45.762C0,20.514,20.514,0,45.762,0h358.679
	c25.248,0,45.762,20.514,45.762,45.762V240.96C450.361,266.366,429.847,286.88,404.599,286.88"/>
<g id="_x3C_Food_Outlines_Group_x3E__1_">
	<path fill="#FFFFFF" d="M123.735,46.22h41.789v15.628H139.65v15.284h25.874v15.399H139.65v37.896h-15.915V46.22z"/>
	<path fill="#FFFFFF" d="M207.313,66.542c5.876,0,11.4,1.47,16.572,4.408c5.171,2.939,9.207,6.927,12.107,11.964
		c2.899,5.038,4.351,10.476,4.351,16.315c0,5.877-1.46,11.373-4.379,16.487c-2.92,5.114-6.898,9.112-11.937,11.993
		c-5.037,2.881-10.59,4.322-16.658,4.322c-8.93,0-16.554-3.177-22.869-9.531c-6.316-6.354-9.474-14.073-9.474-23.156
		c0-9.732,3.567-17.841,10.704-24.329C191.99,69.367,199.184,66.542,207.313,66.542z M207.571,81.254
		c-4.855,0-8.898,1.688-12.128,5.066c-3.231,3.377-4.846,7.7-4.846,12.966c0,5.419,1.596,9.809,4.788,13.166
		c3.191,3.359,7.234,5.038,12.128,5.038c4.893,0,8.964-1.698,12.214-5.095c3.248-3.396,4.874-7.766,4.874-13.109
		c0-5.343-1.597-9.684-4.788-13.023C216.621,82.924,212.54,81.254,207.571,81.254z"/>
	<path fill="#FFFFFF" d="M282.362,66.542c5.876,0,11.4,1.47,16.572,4.408c5.171,2.939,9.207,6.927,12.107,11.964
		c2.899,5.038,4.351,10.476,4.351,16.315c0,5.877-1.46,11.373-4.379,16.487c-2.92,5.114-6.898,9.112-11.937,11.993
		c-5.037,2.881-10.59,4.322-16.658,4.322c-8.93,0-16.554-3.177-22.869-9.531c-6.316-6.354-9.474-14.073-9.474-23.156
		c0-9.732,3.567-17.841,10.704-24.329C267.039,69.367,274.233,66.542,282.362,66.542z M282.62,81.254
		c-4.855,0-8.898,1.688-12.128,5.066c-3.231,3.377-4.846,7.7-4.846,12.966c0,5.419,1.596,9.809,4.788,13.166
		c3.191,3.359,7.234,5.038,12.128,5.038c4.893,0,8.964-1.698,12.214-5.095c3.248-3.396,4.874-7.766,4.874-13.109
		c0-5.343-1.597-9.684-4.788-13.023C291.669,82.924,287.588,81.254,282.62,81.254z"/>
	<path fill="#FFFFFF" d="M374.125,44.102h15.628v86.326h-15.628v-6.583c-3.05,2.9-6.108,4.99-9.177,6.268s-6.395,1.918-9.978,1.918
		c-8.043,0-15-3.12-20.87-9.36s-8.806-13.996-8.806-23.27c0-9.617,2.841-17.498,8.521-23.642c5.68-6.144,12.578-9.217,20.698-9.217
		c3.735,0,7.241,0.707,10.52,2.118c3.278,1.413,6.309,3.53,9.092,6.354V44.102z M357.697,80.968c-4.831,0-8.844,1.708-12.039,5.124
		c-3.194,3.416-4.792,7.795-4.792,13.138c0,5.381,1.625,9.809,4.877,13.281c3.253,3.473,7.255,5.209,12.01,5.209
		c4.907,0,8.978-1.708,12.21-5.124c3.232-3.415,4.85-7.89,4.85-13.424c0-5.418-1.617-9.808-4.85-13.167
		C366.73,82.648,362.641,80.968,357.697,80.968z"/>
</g>
<g id="_x3C_Oasis_Outlines_Group_x3E__1_">
	<path fill="#FFFFFF" d="M163.263,146.986c11.914,0,22.158,4.313,30.731,12.938c8.573,8.626,12.86,19.14,12.86,31.543
		c0,12.288-4.229,22.688-12.688,31.198c-8.459,8.511-18.722,12.766-30.789,12.766c-12.641,0-23.143-4.369-31.505-13.109
		c-8.363-8.738-12.545-19.12-12.545-31.142c0-8.052,1.947-15.456,5.843-22.211c3.895-6.755,9.251-12.107,16.067-16.057
		C148.054,148.962,155.395,146.986,163.263,146.986z M163.091,162.672c-7.794,0-14.346,2.71-19.655,8.129
		c-5.311,5.42-7.966,12.308-7.966,20.666c0,9.312,3.343,16.678,10.029,22.096c5.194,4.236,11.154,6.354,17.878,6.354
		c7.603,0,14.077-2.748,19.426-8.243s8.023-12.27,8.023-20.322c0-8.014-2.694-14.798-8.08-20.351
		C177.36,165.448,170.808,162.672,163.091,162.672z"/>
	<path fill="#FFFFFF" d="M266.218,171.03h15.628v62.282h-15.628v-6.583c-3.05,2.9-6.108,4.99-9.177,6.269
		c-3.068,1.277-6.395,1.917-9.978,1.917c-8.043,0-15-3.119-20.87-9.359c-5.87-6.239-8.806-13.996-8.806-23.27
		c0-9.617,2.841-17.498,8.521-23.643s12.578-9.217,20.698-9.217c3.735,0,7.241,0.707,10.52,2.118
		c3.278,1.412,6.309,3.53,9.092,6.354V171.03z M249.791,183.853c-4.831,0-8.844,1.709-12.039,5.124
		c-3.194,3.415-4.792,7.795-4.792,13.138c0,5.381,1.625,9.809,4.877,13.28c3.253,3.474,7.255,5.21,12.01,5.21
		c4.907,0,8.978-1.708,12.21-5.124c3.232-3.415,4.85-7.89,4.85-13.424c0-5.419-1.617-9.808-4.85-13.166
		S254.735,183.853,249.791,183.853z"/>
	<path fill="#FFFFFF" d="M335.772,179.731l-9.675,9.674c-3.931-3.893-7.499-5.839-10.705-5.839c-1.756,0-3.129,0.372-4.121,1.116
		c-0.993,0.744-1.488,1.67-1.488,2.776c0,0.84,0.314,1.613,0.944,2.318c0.63,0.707,2.185,1.67,4.665,2.892l5.725,2.861
		c6.029,2.978,10.17,6.011,12.423,9.103c2.251,3.091,3.377,6.717,3.377,10.876c0,5.534-2.032,10.152-6.097,13.854
		c-4.064,3.702-9.513,5.553-16.344,5.553c-9.083,0-16.334-3.549-21.753-10.647l9.617-10.476c1.832,2.138,3.979,3.864,6.44,5.181
		c2.461,1.316,4.646,1.975,6.555,1.975c2.061,0,3.721-0.495,4.98-1.488c1.259-0.992,1.889-2.137,1.889-3.435
		c0-2.404-2.271-4.751-6.812-7.041l-5.267-2.634c-10.075-5.074-15.112-11.429-15.112-19.062c0-4.923,1.898-9.13,5.696-12.622
		c3.797-3.492,8.652-5.238,14.568-5.238c4.045,0,7.852,0.888,11.421,2.662C330.266,173.863,333.291,176.411,335.772,179.731z"/>
	<path fill="#FFFFFF" d="M355.32,145.384c2.74,0,5.09,0.993,7.05,2.977c1.96,1.985,2.939,4.39,2.939,7.213
		c0,2.786-0.97,5.162-2.911,7.127c-1.941,1.967-4.262,2.948-6.963,2.948c-2.778,0-5.148-1.001-7.107-3.005
		c-1.96-2.004-2.939-4.437-2.939-7.299c0-2.748,0.97-5.095,2.91-7.041C350.24,146.357,352.58,145.384,355.32,145.384z
		 M347.506,171.03h15.628v62.282h-15.628V171.03z"/>
	<path fill="#FFFFFF" d="M415.457,179.731l-9.675,9.674c-3.931-3.893-7.499-5.839-10.705-5.839c-1.756,0-3.129,0.372-4.121,1.116
		c-0.993,0.744-1.488,1.67-1.488,2.776c0,0.84,0.314,1.613,0.944,2.318c0.63,0.707,2.185,1.67,4.665,2.892l5.725,2.861
		c6.029,2.978,10.17,6.011,12.423,9.103c2.251,3.091,3.377,6.717,3.377,10.876c0,5.534-2.032,10.152-6.097,13.854
		c-4.064,3.702-9.513,5.553-16.344,5.553c-9.083,0-16.334-3.549-21.753-10.647l9.617-10.476c1.832,2.138,3.979,3.864,6.44,5.181
		c2.461,1.316,4.646,1.975,6.555,1.975c2.061,0,3.721-0.495,4.98-1.488c1.259-0.992,1.889-2.137,1.889-3.435
		c0-2.404-2.271-4.751-6.812-7.041l-5.267-2.634c-10.075-5.074-15.112-11.429-15.112-19.062c0-4.923,1.898-9.13,5.696-12.622
		c3.797-3.492,8.652-5.238,14.568-5.238c4.045,0,7.852,0.888,11.421,2.662C409.951,173.863,412.975,176.411,415.457,179.731z"/>
</g>
<path fill="#B0D351" d="M87.895,74.482c4.734-4.734,7.101-11.362,6.627-17.989c-12.624-0.947-23.669,8.837-24.459,21.618v3.156
	C76.691,81.583,83.161,79.216,87.895,74.482"/>
<path fill="#B0D351" d="M66.907,81.425c-0.631-13.098-4.892-25.722-12.308-36.294l-10.731,6.627
	c7.101,7.417,11.835,19.252,14.992,30.298"/>
<path fill="#EF634F" d="M66.592,192.674c0.789,0,1.578-0.315,2.051-1.104c1.263-1.579,32.349-40.396,32.349-67.065
	c-0.473-22.566-16.095-40.397-35.189-39.924c-18.305,0.474-33.138,18.147-33.611,39.924c0,26.668,30.928,65.486,32.349,67.065
	C65.014,192.358,65.803,192.674,66.592,192.674"/>
<path fill="#FFFFFF" d="M67.065,102.413c9.848,0,17.831,8.125,17.831,18.147s-7.983,18.147-17.831,18.147
	s-17.832-8.125-17.832-18.147S57.217,102.413,67.065,102.413"/>
</svg>
