<svg width="100" height="100" viewBox="0 0 106 100" fill="none" xmlns="http://www.w3.org/2000/svg">
<!-- <rect x="0" y="0" width="100%" height="100%" stroke="black" fill="yellow"
stroke-width="5" /> -->
<g transform="translate(20, 15) " >
<!-- <g filter="url(#filter0_df_3596:8755)"> -->
<path fill-rule="evenodd" clip-rule="evenodd" d="M28.4905 46.0535C24.9473 62.695 31.5814 108.036 31.5814 108.036C31.5814 108.036 70.6669 79.0128 77.5808 64.6829C83.3682 52.6878 80.3746 33.1461 61.5502 28.1212C46.0226 23.2505 32.0381 29.391 28.4905 46.0535Z" 
fill="url(#paint0_linear_3596:8755)" shape-rendering="crispEdges"/>
<!-- </g> -->
<path  d="M31 106.674C30.9422 106.605 30.8824 106.533 30.8206 106.459C29.9785 105.448 28.774 103.983 27.3279 102.174C24.4346 98.5541 20.5799 93.5622 16.7283 88.067C12.8729 82.5663 9.04102 76.5903 6.17901 70.9986C3.28814 65.3504 1.5 60.3059 1.5 56.602C1.5 41.1365 14.6498 28.5 31 28.5C47.3502 28.5 60.5 41.1365 60.5 56.602C60.5 60.3059 58.7119 65.3504 55.821 70.9986C52.959 76.5903 49.1271 82.5663 45.2717 88.067C41.4201 93.5622 37.5654 98.5541 34.6721 102.174C33.226 103.983 32.0215 105.448 31.1794 106.459C31.1176 106.533 31.0578 106.605 31 106.674Z" fill="#336699" stroke="white" stroke-width="3"/>
<path fill-rule="evenodd" clip-rule="evenodd" d="M30.8552 74.847C30.0699 75.708 28.5405 76.2 27.2179 76.2C22.7125 76.2 16.5332 68.2665 16.5332 61.194C16.5332 54.1215 19.4679 49.099 23.9732 49.099C26.4119 49.099 28.3959 49.386 29.4499 50.6365L29.4292 50.5545C29.4292 50.5545 28.6232 47.09 27.2799 46.3725C28.0239 45.983 29.3879 44.876 29.3879 44.876C29.3879 44.876 31.4959 47.705 31.4959 50.5545V50.6365C33.0459 49.2835 34.9059 48.443 37.7165 48.443C42.2219 48.443 45.1565 54.1215 45.1565 61.194C45.1565 68.2665 38.7499 76.2 34.2445 76.2C32.9219 76.2 31.6405 75.7285 30.8552 74.847Z" fill="white"/>
<path fill-rule="evenodd" clip-rule="evenodd" d="M32.6325 48.4841C32.6325 48.4841 35.2778 47.8896 36.4765 45.9216C37.6752 43.9536 36.9725 41.3501 36.9725 41.3501C36.9725 41.3501 34.3272 41.9446 33.1285 43.9126C31.9298 45.8806 32.6325 48.4841 32.6325 48.4841Z" fill="white"/>
</g>
<defs>
<filter id="filter0_df_3596:8755" x="16.4491" y="0.5" width="88.78" height="117.536" filterUnits="userSpaceOnUse" color-interpolation-filters="sRGB">
<feFlood flood-opacity="0" result="BackgroundImageFix"/>
<feColorMatrix in="SourceAlpha" type="matrix" values="0 0 0 0 0 0 0 0 0 0 0 0 0 0 0 0 0 0 127 0" result="hardAlpha"/>
<feOffset dx="7" dy="-8"/>
<feGaussianBlur stdDeviation="9"/>
<feComposite in2="hardAlpha" operator="out"/>
<feColorMatrix type="matrix" values="0 0 0 0 0 0 0 0 0 0 0 0 0 0 0 0 0 0 0.28 0"/>
<feBlend mode="normal" in2="BackgroundImageFix" result="effect1_dropShadow_3596:8755"/>
<feBlend mode="normal" in="SourceGraphic" in2="effect1_dropShadow_3596:8755" result="shape"/>
<feGaussianBlur stdDeviation="3" result="effect2_foregroundBlur_3596:8755"/>
</filter>
<linearGradient id="paint0_linear_3596:8755" x1="70.5179" y1="33.5532" x2="33.5179" y2="106.053" gradientUnits="userSpaceOnUse">
<stop stop-opacity="0.28"/>
<stop offset="0.619792" stop-opacity="0.74"/>
</linearGradient>
</defs>
</svg>
