<svg width="53" height="53" viewBox="0 0 53 53" fill="none" xmlns="http://www.w3.org/2000/svg">
<path d="M0 6.88312C0 3.08168 3.08168 0 6.88312 0H46.1169C49.9183 0 53 3.08168 53 6.88312V46.1169C53 49.9183 49.9183 53 46.1169 53H6.88312C3.08168 53 0 49.9183 0 46.1169V6.88312Z" fill="#545454"/>
<path d="M8.25977 45.7727C8.25977 44.4422 9.33835 43.3636 10.6689 43.3636H43.0195C44.35 43.3636 45.4286 44.4422 45.4286 45.7727C45.4286 47.1032 44.35 48.1818 43.0195 48.1818H10.6689C9.33835 48.1818 8.25977 47.1032 8.25977 45.7727Z" fill="white"/>
<path d="M8.25977 26.5C8.25977 25.1695 9.33835 24.0909 10.6689 24.0909H43.0195C44.35 24.0909 45.4286 25.1695 45.4286 26.5C45.4286 27.8305 44.35 28.9091 43.0195 28.9091H10.6689C9.33835 28.9091 8.25977 27.8305 8.25977 26.5Z" fill="white"/>
<path fill-rule="evenodd" clip-rule="evenodd" d="M19.5333 23.8588C21.9221 23.8588 23.8587 21.9222 23.8587 19.5334C23.8587 17.1446 21.9221 15.208 19.5333 15.208C17.1444 15.208 15.2079 17.1446 15.2079 19.5334C15.2079 21.9222 17.1444 23.8588 19.5333 23.8588ZM19.5333 25.3006C22.7184 25.3006 25.3005 22.7185 25.3005 19.5334C25.3005 16.3483 22.7184 13.7662 19.5333 13.7662C16.3482 13.7662 13.7661 16.3483 13.7661 19.5334C13.7661 22.7185 16.3482 25.3006 19.5333 25.3006Z" fill="white"/>
<path fill-rule="evenodd" clip-rule="evenodd" d="M37.014 12.3305V4.81818H32.6886V12.3305C31.258 13.1015 30.2856 14.6134 30.2856 16.3525V27.6466H39.417V16.3525C39.417 14.6134 38.4447 13.1015 37.014 12.3305ZM37.9752 26.2048V16.3525C37.9752 15.1646 37.3126 14.1292 36.3301 13.5998L35.5722 13.1914V6.25997H34.1304V13.1914L33.3726 13.5998C32.39 14.1292 31.7274 15.1646 31.7274 16.3525V26.2048H37.9752Z" fill="white"/>
<path fill-rule="evenodd" clip-rule="evenodd" d="M19.8631 12.3891C19.95 11.401 19.5839 10.3407 18.7812 9.53797C17.9785 8.73528 16.9182 8.36921 15.93 8.45607C15.8432 9.44424 16.2092 10.5045 17.0119 11.3072C17.8146 12.1099 18.8749 12.476 19.8631 12.3891Z" fill="white"/>
<path fill-rule="evenodd" clip-rule="evenodd" d="M36.419 45.3166C33.3666 45.3166 30.8922 42.8421 30.8922 39.7897C30.8922 38.5767 31.2816 37.457 31.9437 36.5457H40.8943C41.5565 37.457 41.9459 38.5767 41.9459 39.7897C41.9459 42.8421 39.4714 45.3166 36.419 45.3166ZM31.2609 35.1039H41.5771C42.7021 36.3415 43.3877 37.9855 43.3877 39.7897C43.3877 43.6384 40.2677 46.7584 36.419 46.7584C32.5703 46.7584 29.4504 43.6384 29.4504 39.7897C29.4504 37.9855 30.136 36.3415 31.2609 35.1039Z" fill="white"/>
<path d="M27.5566 33.039C27.5566 32.6588 27.2485 32.3506 26.8683 32.3506H11.0372C10.657 32.3506 10.3488 32.6588 10.3488 33.039C10.3488 33.4191 10.657 33.7273 11.0372 33.7273H26.8683C27.2485 33.7273 27.5566 33.4191 27.5566 33.039Z" fill="white"/>
<path fill-rule="evenodd" clip-rule="evenodd" d="M25.8397 36.4805L24.4312 43.3636H13.5119L12.0023 36.4805H25.8397ZM26.152 35.1039C27.1844 35.1039 27.6779 35.9336 27.4859 36.7579L25.8397 43.8246C25.7131 44.3681 25.3247 44.7402 24.8841 44.7402H13.2398C12.8158 44.7402 12.4382 44.3952 12.2981 43.8798L10.3776 36.8132C10.1506 35.9778 10.6649 35.1039 11.6974 35.1039H26.152Z" fill="white"/>
</svg>
