<svg version="1.1" id="Layer_1" xmlns="http://www.w3.org/2000/svg" xmlns:xlink="http://www.w3.org/1999/xlink" x="0px" y="0px"
	 width="53px" height="53px" viewBox="1.5 1.5 53 53" enable-background="new 1.5 1.5 53 53" xml:space="preserve">
<path fill="#545454" d="M54.496,9.561c-0.003-0.097-0.008-0.195-0.013-0.292c-0.028-0.399-0.082-0.8-0.172-1.192
	c-0.09-0.41-0.212-0.813-0.365-1.206c-0.315-0.799-0.757-1.55-1.309-2.22c-0.563-0.683-1.234-1.278-1.99-1.759
	c-0.37-0.237-0.76-0.445-1.166-0.624c-0.394-0.176-0.801-0.322-1.217-0.436c-0.401-0.111-0.81-0.195-1.224-0.25
	C46.648,1.526,46.252,1.5,45.853,1.5c-6.157,0-12.314,0-18.469,0c-0.054,0-0.109,0-0.163,0c-5.691,0-11.38,0-17.071,0
	c-1.136,0-2.258,0.215-3.309,0.63C5.79,2.547,4.836,3.158,4.033,3.928C3.229,4.698,2.591,5.611,2.158,6.62
	C1.724,7.624,1.5,8.703,1.5,9.792c0,12.14,0,24.277,0,36.417c0,1.089,0.223,2.165,0.658,3.172c0.433,1.009,1.071,1.922,1.875,2.691
	c0.804,0.771,1.756,1.383,2.808,1.798c1.047,0.415,2.173,0.63,3.309,0.63c5.691,0,11.38,0,17.072,0c0.054,0,0.109,0,0.163,0
	c3.434,0,6.871,0,10.306,0c1.803,0,3.607,0,5.408,0c0.459,0,0.925,0,1.386,0c0.233,0,0.464,0,0.698,0c0.114,0,0.232,0,0.35,0
	c0.057,0,0.118,0,0.176,0c0.03,0,0.059,0,0.088,0c0.015,0,0.03,0,0.045,0s0.022,0,0.037,0c0.373,0,0.745-0.026,1.116-0.072
	c0.386-0.049,0.769-0.123,1.146-0.221c0.413-0.109,0.819-0.247,1.213-0.413c0.403-0.173,0.793-0.374,1.165-0.602
	c0.761-0.468,1.439-1.042,2.012-1.713c0.566-0.656,1.021-1.395,1.352-2.188c0.161-0.38,0.289-0.77,0.387-1.165
	c0.096-0.381,0.16-0.771,0.197-1.162c0.018-0.191,0.03-0.386,0.033-0.582c0-0.048,0.003-0.094,0.003-0.142c0-0.025,0-0.05,0-0.075
	s0-0.052,0-0.078c0-0.104,0-0.21,0-0.313c0-0.424,0-0.844,0-1.265c0-0.844,0-1.685,0-2.527c0-1.682,0-3.366,0-5.05
	c0-6.695,0-13.388,0-20.084c0-1.697,0-3.39,0-5.087c0-0.423,0-0.848,0-1.271c0-0.212,0-0.423,0-0.637c0-0.013,0-0.026,0-0.039
	c0-0.014,0-0.027,0-0.04c0-0.023,0-0.049,0-0.072C54.5,9.656,54.5,9.606,54.496,9.561z"/>
<g>
	<path fill="#FFFFFF" d="M49.712,25.143c-0.014-0.146-0.042-0.29-0.083-0.43c-0.044-0.146-0.105-0.289-0.179-0.425
		c-0.158-0.296-0.382-0.556-0.653-0.764c-0.132-0.1-0.277-0.188-0.435-0.263c-0.147-0.068-0.305-0.127-0.468-0.166
		c-0.151-0.039-0.311-0.062-0.467-0.071c-0.037,0-0.074-0.003-0.111-0.003c-0.008,0-0.017,0-0.027,0c-0.01,0-0.017,0-0.026,0
		c-0.019,0-0.035,0-0.052,0c-0.068,0-0.139,0-0.207,0c-0.274,0-0.553,0-0.826,0c0-2.249,0-4.495,0-6.745
		c-0.116-0.802-0.438-1.566-0.937-2.223c-0.502-0.657-1.163-1.18-1.929-1.528c0-2.441,0-4.878,0-7.319c-1.675,0-3.346,0-5.021,0
		c0,2.441,0,4.878,0,7.319c-0.767,0.348-1.431,0.871-1.929,1.528c-0.502,0.653-0.823,1.418-0.937,2.223c0,2.25,0,4.496,0,6.745
		c-0.268,0-0.534,0-0.809,0c-0.034,0-0.068,0-0.101,0c-0.018,0-0.035,0-0.053,0c-0.006,0-0.018,0-0.022,0c-0.011,0-0.018,0-0.026,0
		c-0.075,0-0.153,0.007-0.228,0.013c-0.159,0.016-0.318,0.045-0.471,0.091c-0.329,0.095-0.631,0.257-0.888,0.474
		c-0.262,0.218-0.472,0.491-0.612,0.793c-0.064,0.139-0.117,0.283-0.154,0.429c-0.033,0.14-0.054,0.283-0.06,0.425
		C32,25.283,32,25.315,32,25.351s0.004,0.068,0.004,0.104c0.004,0.072,0.01,0.139,0.02,0.211c0.02,0.146,0.055,0.289,0.101,0.428
		c0.105,0.296,0.268,0.572,0.485,0.806c0.221,0.241,0.488,0.433,0.787,0.569c0.169,0.078,0.345,0.134,0.525,0.172
		c0.171,0.036,0.342,0.056,0.516,0.056c0.006,0,0.018,0,0.026,0c0.007,0,0.019,0,0.026,0c0.021,0,0.038,0,0.059,0
		c0.037,0,0.075,0,0.112,0c0.074,0,0.148,0,0.223,0c0.153,0,0.301,0,0.452,0c0.6,0,1.202,0,1.803,0c1.261,0,2.521,0,3.782,0
		c1.263,0,2.523,0,3.783,0c0.604,0,1.204,0,1.805,0c0.147,0,0.301,0,0.451,0c0.078,0,0.151,0,0.226,0c0.02,0,0.038,0,0.059,0
		c0.007,0,0.019,0,0.026,0c0.012,0,0.021,0,0.031,0c0.041,0,0.081,0,0.122-0.003c0.173-0.009,0.342-0.036,0.508-0.081
		c0.177-0.045,0.35-0.11,0.509-0.195c0.293-0.153,0.549-0.357,0.756-0.607c0.199-0.245,0.35-0.523,0.438-0.823
		c0.04-0.139,0.066-0.283,0.081-0.429c0.003-0.036,0.007-0.068,0.007-0.104c0.003-0.036,0.003-0.068,0.003-0.104
		C49.723,25.283,49.72,25.21,49.712,25.143z M44.499,22.992c-2.426,0-4.857,0-7.284,0c0.004-2.21,0.004-4.417,0.004-6.621
		c0.119-0.689,0.467-1.319,0.997-1.8c0.132-0.12,0.271-0.228,0.418-0.326c0.076-0.048,0.15-0.094,0.228-0.136
		c0.037-0.021,0.078-0.042,0.118-0.062c0.021-0.009,0.041-0.02,0.06-0.029c0.01-0.002,0.021-0.009,0.029-0.013
		c0.012-0.006,0.024-0.009,0.033-0.016c0.326-0.146,0.652-0.296,0.979-0.442c0-2.318,0-4.634,0-6.953c0.518,0,1.04,0,1.558,0
		c0,2.317,0,4.635,0,6.953c0.325,0.146,0.651,0.296,0.977,0.442c0.011,0.007,0.022,0.01,0.033,0.016
		c0.011,0.003,0.021,0.01,0.03,0.013c0.02,0.009,0.041,0.02,0.059,0.029c0.04,0.02,0.077,0.04,0.118,0.062
		c0.079,0.042,0.157,0.088,0.228,0.136c0.148,0.098,0.288,0.205,0.42,0.326c0.526,0.481,0.879,1.111,0.997,1.8
		C44.499,18.578,44.499,20.785,44.499,22.992z"/>
	<path fill="#FFFFFF" d="M49.675,43.854c-0.029-0.155-0.077-0.306-0.142-0.451c-0.122-0.283-0.302-0.54-0.529-0.758
		c-0.224-0.218-0.495-0.391-0.789-0.507c-0.153-0.062-0.309-0.107-0.472-0.138c-0.153-0.028-0.305-0.042-0.461-0.042
		c-0.278,0-0.553,0-0.831,0c0.716-1.325,1.01-2.82,0.854-4.308c-0.155-1.484-0.76-2.896-1.736-4.055c-3.173,0-6.35,0-9.522,0
		c-0.977,1.163-1.58,2.57-1.735,4.055c-0.157,1.485,0.138,2.981,0.854,4.308c-0.24,0-0.484,0-0.727,0
		c-0.155,0-0.307,0.014-0.461,0.042c-0.162,0.029-0.317,0.075-0.471,0.138c-0.295,0.116-0.563,0.289-0.789,0.507
		c-0.227,0.214-0.407,0.475-0.53,0.758c-0.063,0.146-0.111,0.296-0.142,0.451c-0.03,0.146-0.044,0.294-0.044,0.442
		s0.014,0.297,0.044,0.442c0.03,0.155,0.078,0.306,0.142,0.452c0.123,0.283,0.303,0.539,0.53,0.758
		c0.224,0.218,0.494,0.391,0.789,0.507c0.153,0.062,0.309,0.107,0.471,0.138c0.154,0.028,0.306,0.042,0.461,0.042
		c4.282,0,8.56,0,12.842,0c0.156,0,0.308-0.014,0.461-0.042c0.163-0.029,0.318-0.076,0.472-0.138
		c0.294-0.116,0.562-0.289,0.789-0.507c0.228-0.214,0.407-0.475,0.529-0.758c0.064-0.146,0.112-0.297,0.142-0.452
		c0.032-0.146,0.045-0.294,0.045-0.442C49.72,44.148,49.706,44.001,49.675,43.854z M44.716,41.81c-2.569,0-5.139,0-7.704,0
		c-0.728-1.007-1.126-2.199-1.146-3.425c-0.024-1.226,0.332-2.43,1.021-3.462c2.65,0,5.301,0,7.951,0
		c0.688,1.035,1.045,2.236,1.023,3.462C45.84,39.61,45.442,40.803,44.716,41.81z"/>
	<path fill="#FFFFFF" d="M21.091,24.472c0,5.977,0,7.419,0.083,8.678c0.083,1.281,0.246,2.375,0.453,3.652
		c0.177,1.092,0.388,2.693,0.581,4.505c0.392,3.708-4.911,3.708-4.52,0c0.19-1.808,0.401-3.409,0.582-4.505
		c0.207-1.278,0.37-2.372,0.454-3.652c0.079-1.262,0.082-2.704,0.082-8.678c0-0.085-0.023-0.171-0.073-0.243
		s-0.119-0.131-0.197-0.171c-0.245-0.118-0.477-0.263-0.691-0.428c-0.232-0.181-0.447-0.385-0.637-0.603
		c-0.207-0.237-0.391-0.491-0.55-0.757c-0.169-0.28-0.312-0.573-0.436-0.873c-0.229-0.563-0.378-1.156-0.458-1.752
		c-0.038-0.287-0.059-0.576-0.065-0.866c-0.003-0.142-0.003-0.283,0.003-0.421c0.004-0.145,0.014-0.287,0.028-0.432
		c0.052-0.589,0.173-1.175,0.367-1.738c0.098-0.283,0.215-0.561,0.351-0.827c0.131-0.26,0.28-0.51,0.453-0.748
		c0.103-0.141,0.211-0.279,0.329-0.415c0.11-0.128,0.231-0.247,0.357-0.362c0.121-0.109,0.245-0.211,0.38-0.306
		c0.125-0.089,0.256-0.175,0.395-0.251c0.132-0.073,0.263-0.135,0.401-0.191c0.132-0.053,0.267-0.096,0.405-0.132
		c0.259-0.066,0.523-0.099,0.789-0.099s0.53,0.033,0.788,0.099c0.138,0.036,0.274,0.078,0.405,0.131
		c0.138,0.056,0.273,0.119,0.401,0.191c0.138,0.076,0.27,0.158,0.395,0.251c0.132,0.096,0.259,0.197,0.38,0.306
		c0.125,0.115,0.247,0.237,0.357,0.362c0.117,0.132,0.225,0.271,0.329,0.414c0.169,0.238,0.321,0.492,0.453,0.748
		c0.135,0.267,0.253,0.547,0.35,0.827c0.194,0.563,0.315,1.149,0.367,1.738c0.013,0.145,0.02,0.287,0.028,0.432
		c0.003,0.141,0.006,0.283,0.003,0.421c-0.006,0.29-0.027,0.58-0.065,0.866c-0.08,0.596-0.229,1.188-0.458,1.752
		c-0.121,0.3-0.267,0.592-0.437,0.873c-0.159,0.267-0.342,0.521-0.55,0.757c-0.193,0.22-0.405,0.425-0.637,0.603
		c-0.215,0.165-0.443,0.31-0.692,0.428c-0.079,0.04-0.149,0.099-0.197,0.171C21.116,24.301,21.091,24.387,21.091,24.472z"/>
	<path fill="#FFFFFF" d="M6.854,20.53c0,0.819,0.977,0.795,1.015,0.171c0.112-2.379,0.229-4.755,0.342-7.135
		c0.041-0.842,0.963-0.851,0.963,0c-0.004,2.379-0.006,4.755-0.014,7.135c-0.004,0.835,1.203,0.835,1.2,0
		c-0.003-2.379-0.007-4.755-0.014-7.135c0-0.851,0.922-0.842,0.963,0c0.112,2.379,0.23,4.755,0.343,7.135
		c0.041,0.826,1.014,0.647,1.014-0.171c0-1.584,0-4.437,0.017-5.892c0.007-0.502,0.014-0.841,0.023-1.069
		c0.024-0.562,0.607-0.555,0.655,0c0.02,0.241,0.047,0.598,0.089,1.134c0.123,1.551,0.367,4.601,0.47,6.35
		c0.102,1.749,0.062,2.198-0.103,2.662c-0.165,0.463-0.449,0.946-0.908,1.187c-0.374,0.194-0.86,0.23-1.509,0.24
		c-0.126,0-0.25,0.053-0.339,0.138c-0.089,0.088-0.141,0.203-0.141,0.328c0,5.357,0.004,6.728,0.083,7.935
		c0.082,1.277,0.243,2.367,0.45,3.644c0.175,1.092,0.384,2.32,0.575,4.127c0.387,3.701-4.864,3.701-4.477,0
		c0.188-1.803,0.397-3.033,0.575-4.127c0.206-1.276,0.368-2.366,0.45-3.644c0.076-1.207,0.083-2.578,0.083-7.932
		c0-0.121-0.051-0.239-0.14-0.329c-0.089-0.089-0.213-0.138-0.339-0.138c-0.706-0.006-1.2-0.042-1.578-0.239
		c-0.459-0.239-0.748-0.72-0.908-1.186c-0.165-0.464-0.206-0.914-0.103-2.662c0.103-1.748,0.346-4.798,0.47-6.349
		c0.041-0.539,0.068-0.897,0.089-1.134c0.048-0.556,0.631-0.562,0.655,0c0.01,0.227,0.017,0.565,0.023,1.067
		C6.854,16.097,6.854,18.946,6.854,20.53z"/>
</g>
</svg>