
<svg version="1.1" id="Layer_3" xmlns="http://www.w3.org/2000/svg" xmlns:xlink="http://www.w3.org/1999/xlink" x="0px" y="0px"
	 width="53px" height="53px" viewBox="0 0 53 53" enable-background="new 0 0 53 53" xml:space="preserve">
<g>
	<path fill="#CC3333" d="M5.832,29.125c-0.206-1.189-0.326-2.409-0.326-3.657c0-11.785,9.553-21.338,21.338-21.338
		s21.337,9.553,21.337,21.338c0,1.249-0.12,2.468-0.326,3.657H53V6.883C53,3.082,49.918,0,46.117,0H6.883C3.082,0,0,3.082,0,6.883
		v22.242H5.832z"/>
	<path fill="#CC3333" d="M17.512,28.945c-0.602-0.505-0.993-1.254-0.993-2.101l0.572-9.351c0.01-0.16,0.143-0.285,0.304-0.285
		c0.168,0,0.304,0.136,0.304,0.304v7.268c0,0.38,0.264,0.688,0.59,0.688s0.59-0.309,0.59-0.688l0.278-7.138
		c0.009-0.242,0.208-0.433,0.451-0.433c0.249,0,0.451,0.202,0.451,0.451v7.121c0,0.38,0.264,0.688,0.59,0.688s0.59-0.309,0.59-0.688
		v-7.121c0-0.249,0.202-0.451,0.451-0.451c0.242,0,0.441,0.191,0.451,0.433l0.278,7.138c0,0.38,0.264,0.688,0.59,0.688
		s0.59-0.309,0.59-0.688v-7.268c0-0.168,0.136-0.304,0.304-0.304c0.161,0,0.293,0.125,0.304,0.285l0.572,9.351
		c0,0.849-0.393,1.599-0.998,2.105c-0.078,0.065-0.165,0.119-0.249,0.176H30.8c-0.658-0.401-1.236-1.038-1.674-1.858
		c-0.565-1.06-0.905-2.401-0.905-3.864c0-3.421,1.85-6.194,4.13-6.194s4.13,2.773,4.13,6.194c0,1.507-0.359,2.888-0.956,3.962
		c-0.43,0.774-0.986,1.376-1.618,1.761h9.041c0.267-1.177,0.416-2.399,0.416-3.657c0-9.124-7.396-16.52-16.519-16.52
		s-16.52,7.396-16.52,16.52c0,1.258,0.148,2.48,0.415,3.657h7.026C17.679,29.067,17.591,29.012,17.512,28.945z"/>
	<g>
		<path fill="#336699" d="M0,31.125v14.992C0,49.918,3.082,53,6.883,53h39.234C49.918,53,53,49.918,53,46.117V31.125H0z
			 M11.037,32.351h15.831c0.38,0,0.688,0.308,0.688,0.688c0,0.38-0.309,0.688-0.688,0.688H11.037c-0.38,0-0.688-0.309-0.688-0.688
			C10.349,32.658,10.657,32.351,11.037,32.351z M43.02,48.182H10.669c-1.331,0-2.409-1.078-2.409-2.409
			c0-1.33,1.079-2.409,2.409-2.409h1.489l-1.78-6.55c-0.227-0.836,0.288-1.71,1.32-1.71h14.455c1.033,0,1.526,0.83,1.334,1.654
			l-1.539,6.605h4.497c-0.627-1.046-0.994-2.266-0.994-3.574c0-1.804,0.687-3.447,1.811-4.686h10.316
			c1.125,1.238,1.811,2.882,1.811,4.686c0,1.309-0.367,2.528-0.994,3.574h0.626c1.33,0,2.409,1.079,2.409,2.409
			C45.429,47.104,44.35,48.182,43.02,48.182z"/>
	</g>
</g>
</svg>
