<svg version="1.1" id="Layer_1" xmlns="http://www.w3.org/2000/svg" xmlns:xlink="http://www.w3.org/1999/xlink" x="0px" y="0px"
	 width="53px" height="53px" viewBox="1.5 1.5 53 53" enable-background="new 1.5 1.5 53 53" xml:space="preserve">
<g>
	<path fill="#336699" d="M45.853,1.5c-6.212,0-12.422,0-18.633,0c0,17.666,0,35.334,0,53c3.488,0,6.98,0,10.468,0
		c1.805,0,3.608,0,5.409,0c0.46,0,0.924,0,1.387,0c0.232,0,0.464,0,0.696,0c0.116,0,0.235,0,0.35,0c0.059,0,0.118,0,0.178,0
		c0.029,0,0.057,0,0.088,0c0.014,0,0.03,0,0.043,0c0.015,0,0.024,0,0.039,0c0.372,0,0.745-0.025,1.114-0.072
		c0.387-0.048,0.771-0.123,1.146-0.22c0.414-0.11,0.82-0.248,1.212-0.413c0.405-0.173,0.795-0.374,1.167-0.602
		c0.76-0.468,1.438-1.043,2.011-1.714c0.566-0.656,1.021-1.395,1.354-2.188c0.159-0.381,0.286-0.771,0.386-1.166
		c0.095-0.38,0.159-0.771,0.196-1.161c0.017-0.192,0.03-0.387,0.033-0.582c0-0.049,0.004-0.095,0.004-0.142c0-0.026,0-0.05,0-0.076
		c0-0.024,0-0.052,0-0.077c0-0.104,0-0.211,0-0.314c0-0.424,0-0.843,0-1.265c0-0.844,0-1.684,0-2.526c0-1.683,0-3.367,0-5.051
		c0-6.695,0-13.388,0-20.084c0-1.697,0-3.39,0-5.087c0-0.423,0-0.848,0-1.271c0-0.212,0-0.423,0-0.637c0-0.014,0-0.026,0-0.039
		s0-0.027,0-0.04c0-0.023,0-0.049,0-0.072c0-0.048,0-0.097-0.004-0.143c-0.003-0.098-0.007-0.195-0.013-0.292
		c-0.027-0.399-0.081-0.8-0.171-1.193c-0.091-0.41-0.213-0.813-0.366-1.206c-0.315-0.8-0.756-1.55-1.309-2.22
		c-0.563-0.683-1.234-1.278-1.99-1.759c-0.369-0.237-0.76-0.445-1.165-0.624c-0.394-0.176-0.802-0.322-1.218-0.435
		c-0.4-0.111-0.81-0.195-1.224-0.25C46.648,1.525,46.252,1.5,45.853,1.5z"/>
	<path fill="#FFFFFF" d="M45.57,33.598c0.976,1.16,1.58,2.571,1.735,4.055c0.155,1.486-0.139,2.982-0.854,4.308
		c0.278,0,0.553,0,0.831,0c0.156,0,0.308,0.013,0.462,0.042c0.162,0.03,0.317,0.075,0.471,0.137c0.294,0.117,0.566,0.291,0.79,0.507
		c0.227,0.218,0.406,0.476,0.528,0.758c0.064,0.146,0.112,0.297,0.143,0.452c0.031,0.146,0.044,0.293,0.044,0.442
		s-0.013,0.297-0.044,0.442c-0.03,0.157-0.078,0.306-0.143,0.452c-0.122,0.283-0.302,0.544-0.528,0.759
		c-0.228,0.216-0.496,0.39-0.79,0.506c-0.153,0.062-0.309,0.107-0.471,0.137c-0.154,0.03-0.306,0.043-0.462,0.043
		c-4.281,0-8.56,0-12.842,0c-0.155,0-0.308-0.013-0.461-0.043c-0.162-0.028-0.317-0.073-0.471-0.137
		c-0.295-0.116-0.565-0.29-0.79-0.506c-0.226-0.219-0.406-0.476-0.529-0.759c-0.063-0.146-0.111-0.295-0.142-0.452
		c-0.03-0.146-0.044-0.293-0.044-0.442s0.014-0.296,0.044-0.442c0.03-0.155,0.078-0.304,0.142-0.452
		c0.123-0.282,0.303-0.542,0.529-0.758c0.228-0.216,0.495-0.39,0.79-0.507c0.153-0.061,0.309-0.105,0.471-0.137
		c0.153-0.029,0.306-0.042,0.461-0.042c0.242,0,0.486,0,0.728,0c-0.717-1.325-1.012-2.821-0.854-4.308
		c0.155-1.483,0.759-2.893,1.735-4.055C39.221,33.598,42.397,33.598,45.57,33.598z"/>
	<path fill="#FFFFFF" d="M35.428,23.021c0-2.249,0-4.496,0-6.745c0.112-0.806,0.434-1.57,0.936-2.223
		c0.498-0.657,1.164-1.18,1.929-1.528c0-2.442,0-4.879,0-7.32c1.675,0,3.347,0,5.021,0c0,2.441,0,4.879,0,7.32
		c0.768,0.348,1.428,0.871,1.93,1.528c0.498,0.657,0.819,1.42,0.936,2.223c0,2.249,0,4.496,0,6.745c0.273,0,0.552,0,0.826,0
		c0.068,0,0.139,0,0.207,0c0.018,0,0.034,0,0.052,0c0.01,0,0.018,0,0.026,0c0.011,0,0.021,0,0.027,0
		c0.037,0,0.074,0.003,0.111,0.003c0.157,0.009,0.316,0.032,0.468,0.071c0.162,0.04,0.319,0.097,0.468,0.166
		c0.157,0.075,0.302,0.163,0.435,0.263c0.271,0.208,0.494,0.469,0.653,0.764c0.071,0.137,0.134,0.279,0.178,0.426
		c0.041,0.14,0.069,0.283,0.084,0.43c0.007,0.068,0.011,0.139,0.011,0.208c0,0.036,0,0.068-0.004,0.104
		c0,0.036-0.004,0.068-0.007,0.104c-0.015,0.146-0.041,0.29-0.082,0.429c-0.087,0.299-0.236,0.578-0.436,0.823
		c-0.208,0.25-0.465,0.454-0.757,0.607c-0.159,0.084-0.333,0.149-0.508,0.195c-0.168,0.046-0.337,0.072-0.509,0.081
		c-0.04,0.003-0.081,0.003-0.122,0.003c-0.012,0-0.021,0-0.031,0c-0.009,0-0.021,0-0.026,0c-0.02,0-0.038,0-0.059,0
		c-0.074,0-0.147,0-0.228,0c-0.147,0-0.301,0-0.451,0c-0.6,0-1.2,0-1.802,0c-1.261,0-2.523,0-3.784,0s-2.521,0-3.784,0
		c-0.599,0-1.202,0-1.802,0c-0.149,0-0.298,0-0.451,0c-0.075,0-0.149,0-0.224,0c-0.037,0-0.075,0-0.111,0c-0.02,0-0.038,0-0.059,0
		c-0.01,0-0.021,0-0.027,0c-0.01,0-0.019,0-0.026,0c-0.174,0-0.346-0.02-0.516-0.056c-0.18-0.039-0.355-0.095-0.525-0.172
		c-0.298-0.138-0.567-0.329-0.787-0.569c-0.216-0.235-0.379-0.511-0.484-0.807c-0.048-0.139-0.081-0.283-0.102-0.428
		c-0.011-0.072-0.017-0.14-0.021-0.211c0-0.036-0.004-0.068-0.004-0.104c0-0.036,0-0.068,0.004-0.104
		c0.008-0.143,0.028-0.286,0.062-0.425c0.036-0.146,0.088-0.29,0.153-0.429c0.142-0.302,0.351-0.575,0.611-0.793
		c0.258-0.217,0.561-0.38,0.889-0.474c0.152-0.045,0.313-0.075,0.471-0.091c0.073-0.006,0.153-0.014,0.227-0.014
		c0.011,0,0.018,0,0.028,0c0.005,0,0.018,0,0.021,0c0.019,0,0.035,0,0.052,0c0.033,0,0.068,0,0.103,0
		C34.893,23.021,35.159,23.021,35.428,23.021z"/>
	<path fill="#336699" d="M37.217,16.37c0.12-0.689,0.47-1.319,0.998-1.8c0.131-0.12,0.271-0.229,0.42-0.326
		c0.073-0.048,0.149-0.094,0.227-0.136c0.037-0.02,0.078-0.042,0.119-0.062c0.019-0.009,0.04-0.02,0.058-0.029
		c0.011-0.003,0.02-0.01,0.03-0.014c0.011-0.006,0.024-0.009,0.033-0.016c0.326-0.146,0.651-0.296,0.977-0.441
		c0-2.318,0-4.635,0-6.953c0.52,0,1.041,0,1.56,0c0,2.317,0,4.634,0,6.953c0.325,0.146,0.651,0.296,0.975,0.441
		c0.012,0.007,0.024,0.01,0.035,0.016c0.009,0.003,0.02,0.01,0.029,0.014c0.021,0.009,0.041,0.02,0.058,0.029
		c0.041,0.02,0.079,0.04,0.12,0.062c0.077,0.042,0.155,0.088,0.226,0.136c0.149,0.097,0.288,0.205,0.422,0.326
		c0.524,0.48,0.878,1.111,0.996,1.8c0,2.207,0,4.414,0,6.622c-2.427,0-4.858,0-7.285,0C37.217,20.782,37.217,18.575,37.217,16.37z"
		/>
	<path fill="#336699" d="M36.886,34.923c2.65,0,5.303,0,7.952,0c0.689,1.034,1.045,2.235,1.024,3.462
		c-0.021,1.226-0.42,2.418-1.146,3.425c-2.569,0-5.139,0-7.704,0c-0.728-1.007-1.126-2.199-1.146-3.425
		C35.842,37.159,36.197,35.954,36.886,34.923z"/>
	<path fill="#CC3333" d="M10.148,1.5c5.746,0,11.489,0,17.235,0c0,17.666,0,35.334,0,53c-5.746,0-11.489,0-17.235,0
		c-1.136,0-2.261-0.215-3.309-0.63c-1.05-0.416-2.004-1.028-2.808-1.797c-0.803-0.771-1.44-1.684-1.875-2.692
		C1.723,48.372,1.5,47.298,1.5,46.209c0-12.141,0-24.277,0-36.417c0-1.089,0.223-2.168,0.658-3.172
		c0.434-1.009,1.072-1.922,1.875-2.692C4.836,3.157,5.788,2.547,6.84,2.13C7.89,1.715,9.013,1.5,10.148,1.5z"/>
	<path fill="#F8FAFB" d="M21.091,24.472c0,5.977,0,7.419,0.083,8.679c0.083,1.28,0.246,2.374,0.454,3.651
		c0.177,1.093,0.388,2.694,0.581,4.506c0.392,3.708-4.911,3.708-4.52,0c0.19-1.809,0.401-3.41,0.583-4.506
		c0.207-1.278,0.37-2.372,0.453-3.651c0.08-1.263,0.083-2.705,0.083-8.679c0-0.085-0.024-0.171-0.073-0.243
		c-0.049-0.072-0.118-0.132-0.197-0.171c-0.245-0.118-0.477-0.263-0.692-0.428c-0.232-0.181-0.447-0.385-0.637-0.603
		c-0.208-0.237-0.391-0.492-0.55-0.758c-0.17-0.28-0.312-0.572-0.437-0.873c-0.229-0.563-0.378-1.156-0.458-1.751
		c-0.037-0.287-0.059-0.577-0.065-0.866c-0.004-0.142-0.004-0.283,0.003-0.421c0.003-0.145,0.014-0.287,0.027-0.432
		c0.052-0.59,0.173-1.175,0.367-1.739c0.098-0.283,0.215-0.561,0.35-0.827c0.132-0.26,0.28-0.51,0.454-0.748
		c0.103-0.141,0.211-0.279,0.329-0.415c0.11-0.128,0.231-0.247,0.356-0.362c0.121-0.109,0.245-0.211,0.38-0.306
		c0.125-0.088,0.256-0.175,0.395-0.25c0.132-0.073,0.263-0.136,0.401-0.191c0.132-0.053,0.267-0.096,0.405-0.132
		c0.259-0.066,0.522-0.1,0.789-0.1c0.266,0,0.53,0.034,0.788,0.099c0.138,0.036,0.273,0.079,0.405,0.132
		c0.138,0.055,0.273,0.118,0.401,0.191c0.138,0.076,0.27,0.158,0.395,0.251c0.132,0.095,0.259,0.197,0.38,0.306
		c0.125,0.116,0.246,0.238,0.356,0.362c0.118,0.133,0.225,0.271,0.329,0.415c0.17,0.237,0.322,0.491,0.454,0.748
		c0.135,0.267,0.253,0.547,0.35,0.827c0.194,0.563,0.315,1.149,0.367,1.739c0.013,0.145,0.02,0.287,0.028,0.432
		c0.003,0.141,0.006,0.283,0.003,0.421c-0.006,0.29-0.027,0.58-0.065,0.866c-0.08,0.596-0.229,1.188-0.458,1.752
		c-0.121,0.3-0.267,0.592-0.437,0.872c-0.159,0.267-0.342,0.521-0.55,0.758c-0.194,0.22-0.405,0.424-0.637,0.603
		c-0.215,0.165-0.443,0.31-0.692,0.428c-0.08,0.04-0.15,0.099-0.197,0.171C21.116,24.301,21.091,24.387,21.091,24.472z"/>
	<path fill="#FFFFFF" d="M6.854,20.53c0,0.819,0.977,0.795,1.015,0.171c0.113-2.379,0.229-4.756,0.342-7.135
		c0.041-0.841,0.963-0.851,0.963,0c-0.003,2.379-0.006,4.756-0.014,7.135c-0.004,0.834,1.203,0.834,1.2,0
		c-0.003-2.379-0.006-4.756-0.014-7.135c0-0.851,0.923-0.841,0.964,0c0.112,2.379,0.229,4.756,0.342,7.135
		c0.041,0.825,1.015,0.647,1.015-0.171c0-1.584,0-4.437,0.017-5.893c0.007-0.502,0.014-0.841,0.023-1.068
		c0.024-0.562,0.606-0.556,0.655,0c0.02,0.24,0.047,0.598,0.089,1.134c0.123,1.551,0.366,4.602,0.469,6.35
		c0.102,1.749,0.062,2.199-0.103,2.663c-0.165,0.463-0.449,0.946-0.908,1.187c-0.374,0.194-0.86,0.23-1.509,0.239
		c-0.126,0-0.25,0.053-0.339,0.138c-0.089,0.089-0.141,0.204-0.141,0.329c0,5.357,0.003,6.728,0.082,7.935
		c0.083,1.277,0.243,2.368,0.45,3.645c0.175,1.091,0.384,2.319,0.575,4.126c0.388,3.701-4.864,3.701-4.477,0
		c0.189-1.803,0.397-3.033,0.576-4.126c0.206-1.276,0.367-2.367,0.45-3.645c0.076-1.207,0.082-2.578,0.082-7.932
		c0-0.121-0.051-0.239-0.14-0.329c-0.088-0.089-0.213-0.138-0.338-0.138c-0.707-0.006-1.2-0.042-1.578-0.239
		c-0.458-0.239-0.748-0.72-0.907-1.186c-0.165-0.464-0.206-0.915-0.103-2.662c0.103-1.748,0.346-4.799,0.47-6.35
		c0.041-0.539,0.068-0.897,0.089-1.134c0.048-0.555,0.631-0.562,0.655,0c0.011,0.227,0.017,0.565,0.023,1.068
		C6.854,16.097,6.854,18.946,6.854,20.53z"/>
</g>
</svg>
