<svg xmlns="http://www.w3.org/2000/svg" width="100" height="100" viewBox="0 0 77.7 119.1">
		<path d="M2.5,28.8c2.8,5.1,5.8,10.2,8.6,15.2c0.5,0.9,0.9,1.8,1,2.8c0.2,2.3,0.3,4.6,0.3,6.9
			c0.1,3.7,0.5,7.3,1.6,10.9c1.4,4.6,3.4,8.9,7.1,12.1c0.7,0.6,0.9,1.1,0.9,2c-0.2,5.9-0.4,11.8-0.6,17.7c-0.3,7.6-0.6,15.2-0.8,22.9
			h27.3c-0.1-3.2-0.2-6.3-0.3-9.5c-0.3-10.8-0.6-21.6-1-32.4c0-0.8,0.2-1.4,0.9-1.8c1.3-0.8,2.6-1.6,3.9-2.4c4.6-2.7,7.7-6.7,9.8-11.4
			c3.2-7.1,7.5-13.2,14.7-16.9c2.3-1.2,2.3-4,0.1-5.5c-1.2-0.8-2.4-0.9-3.7-0.7c-4.2,0.6-8.2,2-11.4,4.9c-2.3,2-4.2,4.5-6.2,6.8
			c-0.3,0.3-0.6,0.7-0.9,0.7c-0.3,0-0.6-0.5-0.8-0.8c-0.4-1-0.7-2-0.9-3c-1.2-4.5-0.5-8.8,0.9-13.1c2.2-6.9,4.1-13.9,6.1-20.9
			c0.6-1.9,0.6-3.8-1.1-5.2c-2.5-2-5.6-1-6.7,2c-2.8,7.9-5.7,15.9-8.5,23.9c-0.2,0.5-0.8,0.9-1.2,1.4c-0.5-0.6-1.1-1.2-1.6-1.8
			c-0.1-0.2,0-0.5,0-0.8c0.1-9,0.3-18,0.4-27.1c0-0.6,0-1.2-0.1-1.8c-0.4-2-2.1-3.4-4.3-3.6c-1.9-0.1-3.4,0.8-4,2.8
			c-0.4,1.3-0.6,2.7-0.6,4.1c-0.2,9-0.4,17.9-0.6,26.9c0,0.6-0.2,1.2-0.3,1.8c-1.5-0.3-1.7-1.3-2-2.3c-2.2-7.9-4.5-15.9-6.7-23.8
			c-0.3-1.1-0.8-2.3-1.5-3.2c-1-1.4-2.5-1.6-4.1-1.3c-1.4,0.3-2,1.5-2.1,2.8c-0.1,2-0.2,4.1,0.2,6c1.7,7.9,3.7,15.8,5.5,23.7
			c0.1,0.6-0.1,1.3-0.2,2c-0.4-0.4-1-0.8-1.3-1.3c-3.5-5.4-7-10.8-10.5-16.2c-0.6-0.9-1.2-1.7-2-2.4c-1.2-1.1-2.9-1.1-4.4-0.3
			c-1.2,0.7-1.8,1.9-1.3,3.6C0.8,24.9,1.5,26.9,2.5,28.8z M50.4,50.7c-7.7,1.7-13.6,5.6-16.2,13.6C34.1,56.5,40.9,50.8,50.4,50.7z"/>
		</svg>