<?xml version="1.0" encoding="utf-8"?>
<!-- Generator: Adobe Illustrator 24.3.0, SVG Export Plug-In . SVG Version: 6.00 Build 0)  -->
<svg version="1.1" id="Layer_1" xmlns="http://www.w3.org/2000/svg" xmlns:xlink="http://www.w3.org/1999/xlink" x="0px" y="0px"
	 viewBox="0 0 877.67 186" style="enable-background:new 0 0 877.67 186;" xml:space="preserve">
<style type="text/css">
	.st0{enable-background:new    ;}
	.st1{fill:#29A549;}
	.st2{fill:#B0D352;}
	.st3{fill:#EF634F;}
	.st4{fill:#FFFFFF;}
</style>
<g>
	<g class="st0">
		<path class="st1" d="M105.56,53.68h52.25v19.54h-32.35v19.11h32.35v19.25h-32.35v47.38h-19.9V53.68z"/>
		<path class="st1" d="M210.05,79.09c7.35,0,14.25,1.84,20.72,5.51c6.46,3.67,11.51,8.66,15.14,14.96c3.63,6.3,5.44,13.1,5.44,20.4
			c0,7.35-1.83,14.22-5.47,20.61c-3.65,6.39-8.62,11.39-14.92,14.99c-6.3,3.6-13.24,5.4-20.83,5.4c-11.17,0-20.7-3.97-28.59-11.92
			s-11.84-17.59-11.84-28.95c0-12.17,4.46-22.31,13.38-30.42C190.89,82.62,199.88,79.09,210.05,79.09z M210.37,97.48
			c-6.07,0-11.12,2.11-15.16,6.33c-4.04,4.22-6.06,9.63-6.06,16.21c0,6.78,1.99,12.26,5.99,16.46c3.99,4.2,9.04,6.3,15.16,6.3
			c6.12,0,11.21-2.12,15.27-6.37c4.06-4.25,6.09-9.71,6.09-16.39c0-6.68-2-12.11-5.99-16.28C221.68,99.57,216.58,97.48,210.37,97.48
			z"/>
		<path class="st1" d="M303.87,79.09c7.35,0,14.25,1.84,20.72,5.51c6.46,3.67,11.51,8.66,15.14,14.96c3.63,6.3,5.44,13.1,5.44,20.4
			c0,7.35-1.83,14.22-5.47,20.61c-3.65,6.39-8.62,11.39-14.92,14.99c-6.3,3.6-13.24,5.4-20.83,5.4c-11.17,0-20.7-3.97-28.59-11.92
			s-11.84-17.59-11.84-28.95c0-12.17,4.46-22.31,13.38-30.42C284.72,82.62,293.71,79.09,303.87,79.09z M304.2,97.48
			c-6.07,0-11.12,2.11-15.16,6.33c-4.04,4.22-6.06,9.63-6.06,16.21c0,6.78,1.99,12.26,5.99,16.46c3.99,4.2,9.04,6.3,15.16,6.3
			c6.12,0,11.21-2.12,15.27-6.37c4.06-4.25,6.09-9.71,6.09-16.39c0-6.68-2-12.11-5.99-16.28C315.51,99.57,310.41,97.48,304.2,97.48z
			"/>
		<path class="st1" d="M418.6,51.03h19.54v107.93H418.6v-8.23c-3.81,3.63-7.64,6.24-11.47,7.84s-7.99,2.4-12.47,2.4
			c-10.06,0-18.75-3.9-26.09-11.7c-7.34-7.8-11.01-17.5-11.01-29.09c0-12.02,3.55-21.88,10.65-29.56
			c7.1-7.68,15.73-11.52,25.88-11.52c4.67,0,9.05,0.88,13.15,2.65c4.1,1.77,7.89,4.41,11.37,7.94V51.03z M398.06,97.13
			c-6.04,0-11.06,2.14-15.05,6.41c-3.99,4.27-5.99,9.75-5.99,16.42c0,6.73,2.03,12.26,6.1,16.6c4.07,4.34,9.07,6.51,15.01,6.51
			c6.13,0,11.22-2.13,15.26-6.41c4.04-4.27,6.06-9.86,6.06-16.78c0-6.77-2.02-12.26-6.06-16.46
			C409.35,99.23,404.24,97.13,398.06,97.13z"/>
		<path class="st1" d="M550.75,51.03c14.9,0,27.7,5.39,38.42,16.17c10.72,10.78,16.08,23.93,16.08,39.43
			c0,15.36-5.29,28.37-15.86,39.01s-23.41,15.96-38.49,15.96c-15.8,0-28.93-5.46-39.39-16.39c-10.46-10.93-15.68-23.9-15.68-38.93
			c0-10.07,2.43-19.32,7.3-27.77c4.87-8.44,11.57-15.14,20.09-20.08C531.74,53.5,540.92,51.03,550.75,51.03z M550.54,70.64
			c-9.74,0-17.94,3.39-24.57,10.16c-6.64,6.78-9.96,15.39-9.96,25.84c0,11.64,4.18,20.85,12.54,27.63c6.5,5.3,13.95,7.94,22.35,7.94
			c9.5,0,17.6-3.44,24.29-10.31c6.69-6.87,10.03-15.34,10.03-25.41c0-10.02-3.37-18.5-10.1-25.44S560.19,70.64,550.54,70.64z"/>
		<path class="st1" d="M679.47,81.09h19.54v77.87h-19.54v-8.23c-3.81,3.63-7.64,6.24-11.47,7.84s-7.99,2.4-12.47,2.4
			c-10.06,0-18.75-3.9-26.09-11.7c-7.34-7.8-11.01-17.5-11.01-29.09c0-12.02,3.55-21.88,10.65-29.56
			c7.1-7.68,15.73-11.52,25.88-11.52c4.67,0,9.05,0.88,13.15,2.65c4.1,1.77,7.89,4.41,11.37,7.94V81.09z M658.93,97.13
			c-6.04,0-11.06,2.14-15.05,6.41c-3.99,4.27-5.99,9.75-5.99,16.42c0,6.73,2.03,12.26,6.1,16.6c4.07,4.34,9.07,6.51,15.01,6.51
			c6.13,0,11.22-2.13,15.26-6.41c4.04-4.27,6.06-9.86,6.06-16.78c0-6.77-2.02-12.26-6.06-16.46
			C670.23,99.23,665.11,97.13,658.93,97.13z"/>
		<path class="st1" d="M766.43,91.97l-12.1,12.1c-4.91-4.87-9.38-7.3-13.38-7.3c-2.2,0-3.91,0.47-5.15,1.4
			c-1.24,0.93-1.86,2.09-1.86,3.47c0,1.05,0.39,2.02,1.18,2.9c0.79,0.88,2.73,2.09,5.83,3.61l7.16,3.58
			c7.54,3.72,12.71,7.52,15.53,11.38c2.81,3.87,4.22,8.4,4.22,13.6c0,6.92-2.54,12.69-7.62,17.32c-5.08,4.63-11.89,6.94-20.43,6.94
			c-11.36,0-20.42-4.44-27.2-13.31l12.02-13.1c2.29,2.67,4.97,4.83,8.05,6.48c3.08,1.65,5.81,2.47,8.19,2.47
			c2.58,0,4.65-0.62,6.23-1.86c1.58-1.24,2.36-2.67,2.36-4.29c0-3.01-2.84-5.94-8.52-8.8l-6.58-3.29
			c-12.6-6.35-18.89-14.29-18.89-23.83c0-6.15,2.37-11.42,7.12-15.78s10.82-6.55,18.21-6.55c5.06,0,9.82,1.11,14.28,3.33
			C759.55,84.64,763.33,87.82,766.43,91.97z"/>
		<path class="st1" d="M790.87,49.03c3.42,0,6.36,1.24,8.81,3.72c2.45,2.48,3.68,5.49,3.68,9.02c0,3.48-1.21,6.45-3.64,8.91
			c-2.43,2.46-5.33,3.69-8.71,3.69c-3.47,0-6.44-1.25-8.89-3.76s-3.67-5.55-3.67-9.12c0-3.44,1.21-6.37,3.64-8.8
			C784.52,50.25,787.44,49.03,790.87,49.03z M781.1,81.09h19.54v77.87H781.1V81.09z"/>
		<path class="st1" d="M866.05,91.97l-12.1,12.1c-4.91-4.87-9.38-7.3-13.38-7.3c-2.2,0-3.91,0.47-5.15,1.4
			c-1.24,0.93-1.86,2.09-1.86,3.47c0,1.05,0.39,2.02,1.18,2.9c0.79,0.88,2.73,2.09,5.83,3.61l7.16,3.58
			c7.54,3.72,12.71,7.52,15.53,11.38c2.81,3.87,4.22,8.4,4.22,13.6c0,6.92-2.54,12.69-7.62,17.32c-5.08,4.63-11.89,6.94-20.43,6.94
			c-11.36,0-20.42-4.44-27.2-13.31l12.02-13.1c2.29,2.67,4.97,4.83,8.05,6.48c3.08,1.65,5.81,2.47,8.19,2.47
			c2.58,0,4.65-0.62,6.23-1.86c1.58-1.24,2.36-2.67,2.36-4.29c0-3.01-2.84-5.94-8.52-8.8l-6.58-3.29
			c-12.6-6.35-18.89-14.29-18.89-23.83c0-6.15,2.37-11.42,7.12-15.78s10.82-6.55,18.21-6.55c5.06,0,9.82,1.11,14.28,3.33
			C859.17,84.64,862.95,87.82,866.05,91.97z"/>
	</g>
</g>
<path class="st2" d="M60.1,45.38c4.53-4.53,6.8-10.88,6.35-17.23c-12.09-0.91-22.67,8.46-23.43,20.71c0,1.06,0,2.12,0,3.02
	C49.37,52.19,55.57,49.92,60.1,45.38z"/>
<path class="st2" d="M40,52.03c-0.6-12.54-4.69-24.63-11.79-34.76l-10.28,6.35c6.8,7.1,11.33,18.44,14.36,29.02"/>
<path class="st3" d="M39.7,158.58c0.76,0,1.51-0.3,1.96-1.06c1.21-1.51,30.98-38.69,30.98-64.23c-0.45-21.61-15.42-38.69-33.7-38.24
	C21.41,55.51,7.2,72.44,6.75,93.29c0,25.54,29.62,62.72,30.98,64.23C38.19,158.28,38.94,158.58,39.7,158.58z"/>
<ellipse class="st4" cx="40.15" cy="89.51" rx="17.08" ry="17.38"/>
</svg>
